<svg width="100" height="100" viewBox="0 0 100 100" fill="none" xmlns="http://www.w3.org/2000/svg">
<path d="M50.7429 18.3351C54.0381 12.8774 58.5056 11.1116 63.8937 9.81253C71.3109 7.9374 82.4018 9.80494 88.4435 17.8709C88.4435 17.8709 88.4435 17.8709 88.4435 17.8709C91.6096 21.9099 94.0414 26.8099 94.803 31.6558C96.5883 41.8169 91.1754 51.1584 85.4239 57.4305C85.1259 57.7621 84.8953 57.9168 84.7584 58.0656C83.4687 59.4891 81.2574 61.7366 79.871 62.9741C76.9919 65.635 71.7452 69.8147 68.9397 71.9065C67.7623 72.7932 66.532 73.7266 66.0259 73.9997C65.6011 74.3211 65.4113 74.5716 65.3026 74.6605C65.3012 74.6615 65.2999 74.6624 65.2986 74.6633C64.9419 74.9542 64.0003 75.6092 63.8065 75.7642C63.7767 75.788 63.9976 75.6888 63.503 76.0498C63.4585 76.0825 63.4733 76.0222 63.0614 76.3421C62.9469 76.4307 61.6418 77.5219 61.2515 77.8369C59.9635 78.8543 56.917 81.3024 55.5236 82.623C55.3044 82.826 55.193 82.9556 54.9702 83.1675C54.8551 83.277 54.6721 83.4258 54.6379 83.4592C54.4988 83.5904 53.8677 84.3519 53.9876 83.9801C53.3031 84.6954 53.5581 84.524 53.567 84.5669C52.8717 85.3041 52.446 85.6901 52.3497 85.9385C51.9131 86.4552 51.4291 87.0908 51.0775 87.6347C51.0775 87.6347 51.0775 87.6347 51.0775 87.6347L50.0486 89.2234L49.0197 87.6347C46.6065 84.0612 42.9407 81.1212 39.4028 78.2377C39.3909 78.2492 39.379 78.2608 39.3671 78.2724C38.1481 77.2167 37.6785 77.0037 37.0161 76.3597C36.5523 76.0272 36.1051 75.7112 35.6478 75.389C24.6278 66.4523 11.2315 58.4811 6.04904 42.6104C5.87133 41.9443 5.90276 41.7603 5.67445 40.6395C5.42612 39.4015 5.09609 37.6191 5.09502 35.9174C5.07179 34.4231 5.3652 32.2542 5.74163 30.6215C5.82322 30.2508 5.82352 29.9899 5.83385 29.947C5.89271 29.7117 5.989 29.725 6.04984 29.4978C6.1229 29.226 6.14464 28.875 6.24284 28.5592C6.61137 27.3531 7.06405 26.1544 7.12673 26.0072C7.41373 25.3271 7.57603 25.217 7.60002 25.1615C7.95112 24.4094 7.7475 24.6554 7.83885 24.4687C8.31896 23.5261 8.82018 23.0172 9.37731 21.6569C9.42679 21.7333 9.47648 21.8094 9.52636 21.8854C10.1372 20.9607 9.57543 21.4728 9.6597 21.2577C9.68474 21.1565 10.9561 19.2845 11.0863 19.139C11.4635 18.6383 11.5657 18.6902 11.5983 18.6472C11.6291 18.6079 11.767 18.3934 11.9645 18.1091C11.9645 18.1091 11.9645 18.1091 11.9645 18.1091C12.3167 17.5997 12.8572 16.9238 13.277 16.5632C14.0714 15.8875 13.395 16.9227 13.603 16.7643C13.6334 16.7325 14.3653 15.9562 14.5199 15.9145C14.6826 15.8579 14.029 16.4948 14.0641 16.5103C14.0797 16.5065 15.2817 15.58 15.1427 15.8573C15.0248 16.0703 13.5047 17.4306 13.2866 17.8059C13.247 17.865 13.431 17.8462 13.3942 17.8969C13.3532 17.9533 13.0913 18.2639 12.751 18.7119C12.751 18.7119 12.751 18.7119 12.751 18.7119C11.8782 19.8288 10.6639 21.7034 10.5808 21.831C10.6571 21.597 10.7174 21.3924 10.79 21.1718C10.6258 21.4162 10.4678 21.657 10.2961 21.9279C10.4971 21.5084 10.6653 21.1562 10.8623 20.7715C10.1215 20.9937 9.50218 23.0025 9.6937 23.1751C9.77171 23.2559 10.5985 22.376 10.2033 23.4085C10.3082 23.2783 10.4144 23.1485 10.5219 23.019C10.6529 22.6991 10.7907 22.3779 10.9355 22.0553C10.7878 22.2381 10.6427 22.4213 10.5 22.605C10.5148 22.5148 10.53 22.4243 10.5457 22.3337C10.8498 21.7253 11.117 21.2094 11.4288 20.6512C11.6308 20.3972 11.6742 20.5088 11.8165 20.3362C12.9113 19.0373 12.9029 19.0076 12.94 18.8568C12.94 18.8567 12.94 18.8567 12.94 18.8567C12.9729 18.7577 13.0372 18.5949 13.5457 18.0163C13.7667 17.8377 13.9854 17.6701 14.2147 17.499C13.9894 17.4245 14.6628 16.8711 15.3728 16.101C15.3276 16.2374 15.2836 16.3744 15.242 16.5108C16.2842 15.3846 19.023 14.0265 18.129 14.1581C18.4367 13.9986 18.7465 13.8478 19.0582 13.7055C19.2765 13.5068 19.5001 13.3122 19.7279 13.1224C20.0872 12.9426 20.4499 12.7738 20.8181 12.6148C20.8341 12.6445 20.8501 12.6742 20.866 12.7039C20.5766 12.8354 20.2901 12.9734 20.0069 13.1176C20.2677 13.1007 20.526 13.089 20.7843 13.0814C20.9865 12.9678 21.1904 12.8576 21.396 12.7509C20.4655 13.0551 21.5716 12.3885 21.8192 12.1562C22.5774 11.8065 23.1405 11.8145 23.4046 11.7391C23.523 11.6919 24.9187 11.0087 24.4292 11.4816C25.1749 11.2455 25.9323 11.0488 26.697 10.8908C27.0031 10.8688 27.3087 10.8528 27.6136 10.8423C26.9866 11.0662 28.8858 11.0319 27.5159 11.2515C26.4995 11.4342 26.2225 11.3543 25.7366 11.4493C25.2996 11.5406 25.0927 11.6869 24.6251 11.8108C21.486 12.6768 19.0174 13.8917 16.5317 15.8399C16.0462 16.2259 15.6557 16.652 15.3529 16.9351C15.0109 17.2586 15.3409 16.7512 14.9358 17.1993C14.515 17.6767 14.5039 17.8561 14.3934 17.9796C14.3258 18.0562 14.0379 18.2382 13.8434 18.4719C13.6737 18.6749 13.4939 18.9052 13.3175 19.1461C13.3175 19.1461 13.3175 19.1461 13.3175 19.1461C12.6778 20.0149 12.1101 20.9492 12.0381 21.0569C11.9173 21.1615 10.089 24.0288 10.0442 24.1743C9.99933 24.2442 9.76733 23.9297 9.7647 24.7494C9.6709 24.9518 9.5739 25.166 9.4769 25.3869C9.43144 25.322 9.38615 25.2568 9.34104 25.1914C8.98437 26.5893 9.04498 26.083 8.56985 27.3257C7.38051 30.3153 6.54456 35.1467 7.05164 38.6748C7.14807 39.4553 7.26309 39.7465 7.43833 40.6556C7.57633 41.5066 7.99326 43.7097 8.14909 43.1616C8.47576 45.0536 9.03186 45.1654 9.13415 46.1332C9.21511 46.2236 9.29636 46.3135 9.3779 46.4029C9.64386 47.4062 9.90729 47.6162 10.4347 48.5875C10.6674 49.0026 10.2506 48.6004 10.8849 49.355C10.962 49.5209 11.0386 49.683 11.1176 49.8465C11.0607 49.8299 11.0037 49.8131 10.9467 49.7963C11.5096 50.6908 11.5378 50.7545 11.6026 50.5769C11.8443 51.0244 12.099 51.4731 12.3581 51.9104C12.4337 51.9366 12.5092 51.9626 12.5847 51.9885C12.5644 51.8646 10.8694 49.4457 9.56615 46.5672C8.20446 43.713 7.48386 40.3442 7.3702 39.5179C7.12879 37.5867 7.09989 33.5765 7.49266 32.0382C7.62166 31.4153 7.8141 31.1406 8.04951 30.2798C8.28455 29.4144 8.54694 28.238 8.71095 27.793C9.05445 26.1661 13.0089 19.5966 10.5494 24.1911C10.68 24.095 10.8114 23.9997 10.9436 23.9051C11.7682 22.0075 11.5295 22.6981 12.451 21.3353C12.7862 20.8441 13.4954 19.6843 13.8277 19.5372C13.8277 19.5372 13.8277 19.5372 13.8277 19.5372C13.8817 19.5125 13.9239 19.5159 13.951 19.5543C13.9392 19.571 13.9274 19.5878 13.9156 19.6045C13.9156 19.6045 13.9156 19.6045 13.9156 19.6045C13.1391 20.7036 12.3115 21.742 11.7311 22.6951C11.6628 22.7966 11.0841 24.0537 10.7412 24.6392C10.4241 25.1811 10.3556 24.6153 10.0504 26.039C9.31889 26.8479 9.38783 27.5146 9.32172 27.7695C9.21173 28.2153 9.04509 28.204 8.87086 28.6537C8.68416 29.1413 8.68607 29.5112 8.66641 29.578C8.39671 30.216 7.75138 33.8325 7.74174 33.9928C7.72952 33.8398 7.71809 33.6921 7.708 33.5439C7.56031 34.4873 7.74635 34.3114 7.7426 34.5618C7.728 34.7485 7.71577 34.9348 7.70585 35.1209C7.67716 35.0452 7.6488 34.9691 7.62077 34.8926C7.58154 36.0195 7.69972 35.1648 7.7018 36.7501C7.71641 37.7653 7.71498 38.8098 7.73658 38.907C7.74242 38.9352 7.78631 38.6127 7.84469 39.0186C7.93578 39.6934 8.14855 40.8461 8.07467 40.9946C8.15819 41.3181 8.25655 41.2685 8.26803 41.3112C8.27071 41.512 9.23597 44.6724 9.50098 45.1878C10.102 46.7021 10.873 48.3306 11.7637 49.8249C11.8549 49.9781 11.7451 49.9095 11.8377 50.0627C11.9793 50.3101 12.851 51.5254 12.9779 51.6946C13.2832 52.1427 14.0845 53.3423 14.2449 53.5099C14.2667 53.534 14.0493 53.1051 14.3956 53.5416C14.7796 54.0202 14.5018 53.8129 14.5207 53.8409C15.233 54.8532 15.7901 55.4315 16.3386 56.0775C16.5153 56.2855 16.785 56.7179 17.055 56.9981C17.0859 57.0303 17.0788 56.9211 17.1098 56.9523C17.5168 57.3743 17.7916 57.8639 17.9571 58.0587C18.3567 58.5289 18.197 58.2217 18.219 58.2453C18.4963 58.5476 18.8475 58.9759 19.2821 59.429C21.2207 61.4418 22.8648 63.0121 25.0555 64.9973C25.3307 65.2461 25.6261 65.5755 25.6686 65.613C25.8002 65.729 25.8017 65.6532 26.1807 65.9894C26.9814 66.6987 27.7341 67.3444 28.5363 68.0274C28.699 68.1659 28.7361 68.262 28.8598 68.3678C29.2764 68.724 30.7769 69.8148 30.702 69.948C31.6255 70.5382 32.1051 71.0792 32.7751 71.6215C34.3858 72.93 36.8773 74.9028 38.4699 76.2247C38.7996 76.498 38.9336 76.6475 39.1148 76.7982C39.4623 77.0824 41.3324 78.6187 41.4376 78.7197C41.6239 78.8908 41.4386 78.891 42.4841 79.6472C43.0527 80.1301 42.9509 80.1101 43.0703 80.2178C44.0024 81.0588 44.9015 81.75 44.6847 81.684C45.772 82.655 46.4182 83.2385 46.7719 83.7331C46.8032 83.7037 47.2678 84.1394 47.7945 84.7583C47.1735 84.1865 47.2631 84.3084 45.8516 82.8839C45.8299 82.8624 45.8942 82.8804 45.8725 82.8588C45.677 82.6636 45.2426 82.2681 44.881 81.929C44.5192 81.5901 44.7339 81.7593 44.5904 81.6271C44.463 81.5105 44.4463 81.5375 44.2598 81.3682C43.6571 80.8211 43.0697 80.318 42.7181 80.0139C42.4967 79.8223 42.264 79.5842 42.0876 79.4334C41.3946 78.8367 39.9352 77.6533 39.029 76.9124C38.847 76.7632 38.9473 76.7992 38.5474 76.47C38.5005 76.4314 38.3059 76.3209 37.9442 76.0386C37.5821 75.7561 37.3141 75.5159 37.0787 75.3315C36.8866 75.1813 36.9451 75.2722 36.5536 74.9611C36.2317 74.7055 32.5128 71.6961 32.3212 71.5275C32.0381 71.2875 31.9365 71.1331 31.7556 70.9948C31.7236 70.9707 31.636 70.9696 31.5255 70.885C29.6957 69.5018 25.8427 66.1855 23.9068 64.4013C19.8404 60.6958 16.1907 57.0834 12.925 52.4227C12.8544 52.3483 12.7839 52.2738 12.7137 52.1991C13.0342 52.6728 13.3654 53.1423 13.7063 53.6076C13.6735 53.635 13.6408 53.6624 13.6081 53.6898C14.0707 54.3237 14.088 54.1742 14.1242 54.124C14.2745 54.3655 14.4276 54.606 14.5834 54.8458C14.8441 54.9554 15.9697 56.5012 16.6162 57.2248C17.033 57.7031 17.5843 58.2352 17.8057 58.4814C18.2754 59.003 18.2052 59.0422 18.2416 59.0837C18.3041 59.1538 19.033 59.8207 19.5313 60.3298C20.2641 61.0764 20.2574 61.2373 21.3597 62.1648C22.6404 63.4756 24.1667 64.8159 25.6563 66.098C25.3097 65.9221 26.7037 67.0107 27.3096 67.5218C30.9927 70.6589 35.6647 74.3183 39.4179 77.406C39.9059 77.8082 40.2445 78.1338 40.5104 78.3519C40.6543 78.47 40.7442 78.4899 40.9378 78.6583C40.9701 78.6868 40.9732 78.7394 41.3483 79.0613C42.2879 79.8513 44.5532 81.7703 45.0714 82.3763C46.6999 83.912 48.2737 85.5212 49.4731 87.3411L50.0486 88.2297L50.6241 87.3411C50.6241 87.3411 50.6241 87.3411 50.6241 87.3411C51.5993 85.8386 52.8432 84.4759 54.1809 83.1456C54.2624 83.0856 54.3445 83.0255 54.4273 82.9654C54.9058 82.3686 57.2753 80.2871 58.4174 79.3406C60.4487 77.6132 63.1213 75.4562 64.9575 73.9913C65.3659 73.6652 65.6996 73.4356 66.0795 73.1331C66.242 73.0037 66.4215 72.8143 66.5914 72.6785C68.4962 71.1578 71.0978 69.1155 72.9838 67.5237C77.2586 63.9065 81.2113 60.3311 84.9114 55.8646C93.9176 46.649 96.0058 29.3189 86.7146 19.196C86.7146 19.196 86.7146 19.196 86.7146 19.196C82.3937 13.452 75.0168 10.7202 68.2361 11.1314C67.9644 11.1459 67.9749 11.0571 67.7632 11.0714C66.5085 11.1222 63.7754 11.6756 62.4429 12.1105C61.3672 12.408 59.6824 12.9763 59.3818 13.2563C63.0503 11.776 67.2423 11.015 71.3668 11.3957C71.6594 11.4234 71.6858 11.5158 71.7215 11.5205C72.3814 11.6211 71.9777 11.445 72.9427 11.5699C73.2824 11.5629 76.128 12.5318 75.8572 12.1911C76.5748 12.3519 81.21 14.5146 81.9671 15.2036C82.2203 15.3653 82.098 15.1708 82.1495 15.2012C82.3739 15.3353 82.3958 15.5044 82.5796 15.6457C83.0828 16.0095 84.3339 16.9765 84.5399 17.1983C84.9303 17.5661 85.8195 18.6016 86.4158 19.425C86.4158 19.425 86.4158 19.425 86.4158 19.425C86.5882 19.6576 86.7416 19.8645 86.8643 20.0218C87.3596 20.6641 87.3768 20.4658 87.7801 21.0273C88.0881 21.4694 87.683 21.0455 88.3019 22.0582C88.6222 22.5535 89.7657 24.4015 89.9675 24.8449C90.1854 25.2758 90.3913 25.878 90.6771 26.5274C91.1079 27.4444 91.8882 29.5987 92.1326 30.6095C92.1488 30.6698 92.2786 30.7923 92.3111 30.9443C92.3799 31.2688 92.2412 31.1986 92.2808 31.4437C92.4118 31.6815 92.8933 35.8937 92.7714 36.6097C92.7614 37.1084 92.8097 37.4535 92.791 37.7279C92.7755 37.943 92.6788 37.9601 92.6596 38.1776C92.6543 38.2449 92.6858 38.825 92.6031 39.3954C92.55 39.9422 92.0515 41.943 91.9734 42.1631C91.9338 42.3119 92.0419 42.1643 91.9205 42.6041C91.8076 43.0046 91.6473 43.2426 91.5759 43.4675C91.4099 43.9897 91.2745 44.5917 91.0677 45.129C90.4554 46.6739 90.3655 46.5453 90.3292 46.6376C90.2075 46.8869 90.2436 47.021 90.2073 47.1032C90.0573 47.45 89.6553 48.2893 89.496 48.59C89.3012 48.9645 89.1391 49.0884 88.9215 49.4736C88.7598 49.76 88.495 50.376 88.0924 51.0206C87.1941 52.4725 86.0162 54.1128 84.9765 55.3944C84.665 55.7793 84.5629 55.7963 84.4656 55.9124C83.9532 56.5198 83.7243 56.8927 83.5752 57.0638C82.5209 58.2887 80.47 60.2864 79.4112 61.3063C78.9851 61.7345 77.1126 63.584 75.9982 64.5648C75.8717 64.6776 75.9615 64.5415 75.8258 64.6724C75.5009 64.9851 75.588 65.0173 75.4152 65.1676C75.3315 65.2397 75.1118 65.373 74.8676 65.5821C73.6016 66.665 72.747 67.4312 72.1669 67.9171C66.588 72.6046 60.6101 77.004 55.6374 81.5223C55.0757 82.0383 54.4274 82.6813 53.6097 83.4728C53.5745 83.4879 53.5394 83.5031 53.5044 83.5183C53.4865 83.5569 53.4688 83.5954 53.4512 83.6338C52.5863 84.5456 52.2416 84.9459 51.446 85.9041C51.3763 85.9887 51.1059 86.2329 51.0467 86.4494C50.503 87.1333 50.569 87.0924 50.4808 87.2483C50.4808 87.2483 50.4808 87.2483 50.4808 87.2483L50.0486 87.9157L49.6163 87.2483C49.5668 87.1851 49.4937 87.083 49.3281 86.8468C48.7788 86.0692 48.2263 85.3726 47.5879 84.6551C47.2761 84.2495 48.7384 85.8287 48.7919 85.9354C48.9354 86.1192 49.0461 86.3319 49.1702 86.5062C49.3578 86.7692 49.5351 87.0182 49.6661 87.2161L50.0486 87.8066L50.431 87.2161C50.431 87.2161 50.431 87.2161 50.431 87.2161C50.5536 87.0223 50.6565 86.8759 50.7094 86.83C51.145 86.1495 50.5784 86.981 50.6119 86.8789C50.9145 86.4594 51.3007 85.9757 51.6318 85.5943C51.6804 85.2871 53.8784 83.1558 53.6916 83.2514C53.886 83.0809 54.0608 82.9331 54.2451 82.7782C54.9201 81.964 55.4529 81.5711 56.5321 80.6546C56.4443 80.7125 56.357 80.7703 56.2701 80.8281C56.2826 80.8057 57.2287 79.9369 56.9275 80.2895C57.8445 79.3726 57.8861 79.5315 58.7158 78.6874C59.2457 78.2229 58.9528 78.5481 59.9001 77.7589C60.4645 77.2901 61.1535 76.6806 61.7797 76.1674C61.9254 76.0481 62.0142 76.0263 62.145 75.9202C62.2759 75.814 62.3152 75.7323 62.4739 75.6022C62.8047 75.3309 63.2434 75.012 63.444 74.8468C63.6245 74.6982 63.862 74.461 64.3018 74.0984C65.845 72.8257 65.3987 73.2544 65.6568 73.0697C65.9303 72.8742 66.0721 72.6684 66.6011 72.2504C66.6543 72.2085 66.5472 72.3534 66.7172 72.2137C66.8537 72.1014 66.8945 72.005 67.342 71.6289C67.5162 71.4881 70.3121 69.1763 70.7284 68.8174C71.3799 68.2717 72.8449 67.09 73.5075 66.5112C73.7632 66.2891 74.002 66.0148 74.2712 65.7773C75.1644 64.9926 76.5828 63.7134 77.6774 62.6708C78.6707 61.7368 80.4499 60.129 80.8784 59.4939C82.1829 58.0872 82.5594 57.7933 82.6614 57.6872C82.926 57.3945 82.9917 57.2113 83.3111 56.8338C87.5167 52.0609 92.064 44.3534 92.2977 37.8892C92.8185 31.2352 90.0507 24.7954 86.0708 19.6894C86.0708 19.6894 86.0708 19.6894 86.0708 19.6894C81.0307 12.9773 71.8714 10.6376 64.1128 12.3821C64.0822 12.4283 64.0518 12.4745 64.0216 12.5206C65.7007 12.1663 67.7187 12.0256 69.4085 12.0625C71.6569 12.0432 75.0603 12.5018 76.5251 13.3844C75.8835 13.1845 74.8542 12.7921 74.833 12.9517C75.99 13.2566 77.1247 13.6584 78.2148 14.1578C78.2127 14.0757 78.2101 13.9935 78.2072 13.9113C79.3779 14.4006 80.5082 15.0463 81.5642 15.7679C81.7463 15.893 81.6578 15.747 81.8156 15.8585C81.9915 15.9845 81.8312 15.9554 81.8638 15.9795C82.3038 16.301 82.4752 16.353 82.5281 16.3943C82.6602 16.5035 82.5192 16.4722 82.885 16.798C83.5609 17.4073 84.148 17.75 83.7867 17.8133C83.9964 18.0149 84.2024 18.2223 84.4045 18.4355C84.5161 18.4346 84.6282 18.4347 84.7407 18.436C85.1426 19.0674 85.5075 19.4947 85.8384 19.8675C85.8384 19.8675 85.8384 19.8675 85.8384 19.8675C86.322 20.4148 86.7136 20.7953 86.8208 21.4285C87.0611 21.6517 87.297 21.876 87.5286 22.1016C87.558 22.2953 87.5852 22.4879 87.61 22.6792C87.6873 22.6704 87.7646 22.6618 87.842 22.6533C88.7604 24.2053 89.6657 25.7618 90.3029 27.3488C90.7206 28.414 90.7939 28.7117 91.1066 29.7048C91.7221 31.9162 91.0218 29.7418 91.3263 31.6307C91.3855 31.5147 91.444 31.3976 91.5017 31.2793C91.6032 31.5888 91.6977 31.8986 91.7853 32.2089C91.7601 32.4414 91.7314 32.6715 91.6994 32.8993C92.1879 33.8067 91.9542 34.4981 91.9661 34.6264C91.9705 34.7316 92.2251 35.1011 92.0627 36.2639C92.3416 35.7777 92.0593 37.1544 92.0432 37.2626C92.0463 37.3678 92.0151 38.7033 91.9313 39.2376C91.8779 39.6617 91.6761 40.5481 91.5431 41.1648C91.4267 41.7098 91.5219 41.6736 91.5144 41.7137C91.3581 42.3814 91.3951 41.9485 91.2668 42.4261C91.1356 42.9023 91.0931 43.2905 91.0549 43.3912C91.0355 43.4415 91.0108 43.2467 90.9301 43.4792C90.7156 44.1091 90.3784 45.2403 90.0783 45.9359C89.9744 46.1821 89.7776 46.4676 89.6537 46.7354C89.4649 47.1434 89.4515 47.37 89.3337 47.6056C89.2917 47.6877 88.917 48.1533 88.5888 48.8038C88.5269 48.9289 88.5749 49.4155 87.9677 49.6878C87.9948 49.7502 88.0217 49.8128 88.0483 49.8754C86.906 52.0406 86.1482 52.3126 85.8298 53.4104C84.756 54.7953 85.3562 53.7445 85.2241 53.8872C85.1405 53.9781 84.8295 54.4532 84.7889 54.5012C84.718 54.5863 84.6938 54.5442 84.62 54.6403C83.2469 56.3968 83.9192 55.6673 83.5169 56.2447C82.5311 57.5987 81.47 58.4123 83.4204 56.2539C83.4016 56.2386 83.3829 56.2234 83.3641 56.2081C82.9338 56.7739 81.7168 58.1355 82.0302 57.6008C82.3056 57.2001 85.0447 53.8955 83.4109 55.7091C83.0414 56.1146 82.9303 56.3927 82.1823 57.0124C81.7637 57.4856 81.8613 57.6975 81.2302 58.2743C81.3783 58.2186 81.5267 58.1629 81.6755 58.107C80.9712 59.0356 79.8745 60.0057 79.2792 60.6656C79.0792 60.8933 78.5247 61.8922 78.4796 61.4871C78.1311 61.8709 76.3554 63.4925 76.0402 63.8137C75.9649 63.8908 75.9747 64.1066 74.7811 65.111C74.6877 65.1694 74.5943 65.2277 74.5011 65.286C75.5209 64.292 73.6158 65.9335 74.0273 65.3716C74.2428 65.2644 75.1042 64.5346 75.2601 64.4352C75.5276 64.2673 74.8972 64.9462 75.7511 64.1349C76.125 63.4505 74.6453 64.9718 74.7257 64.5818C73.661 65.7028 73.4735 65.7251 73.2117 65.9571C72.0857 66.9409 71.397 67.5697 70.3099 68.4725C70.077 68.7289 72.0508 67.1092 72.272 66.8847C71.4985 67.7645 73.0152 66.4595 73.5809 65.8218C73.6666 65.8109 73.7524 65.8001 73.8385 65.7893C72.9973 66.502 72.1801 67.1989 71.3792 67.9343C71.3138 67.9678 71.2486 68.0012 71.1834 68.0347C71.3533 67.8555 71.5207 67.6772 71.6878 67.4981C70.9771 68.0564 71.473 67.8047 70.4801 68.5027C70.4845 68.565 70.4887 68.6272 70.4928 68.6893C69.6007 69.4229 68.6993 70.1546 67.7996 70.8794C67.4029 71.3296 65.6476 72.72 65.8936 72.373C65.1962 72.9353 66.089 72.2808 65.458 72.8328C65.1848 73.0715 64.6333 73.5255 64.4749 73.6173C64.4716 73.4867 65.2873 72.7999 65.4884 72.5381C65.3348 72.6374 61.5263 75.8666 61.7962 75.5005C61.4817 75.7444 61.6576 75.6732 61.1196 76.1396C59.5863 77.4584 57.1778 79.3806 56.0525 80.583C57.5378 79.3421 57.8827 78.9573 59.0006 77.9967C59.6874 77.3924 64.0679 73.763 63.1528 74.6556C63.3038 74.5145 63.4554 74.3728 63.6073 74.2306C63.79 74.122 63.9734 74.0133 64.1577 73.9045C63.6993 74.2847 63.245 74.6614 62.7955 75.0348C62.6644 75.1021 62.5338 75.1693 62.4037 75.2367C62.3666 75.2955 62.3296 75.3542 62.2926 75.4127C62.1007 75.5758 61.9098 75.7382 61.7199 75.8999C61.7575 75.8356 61.7952 75.7711 61.8328 75.7065C61.5325 75.9484 61.2349 76.1888 60.9401 76.4279C61.0404 76.3885 61.141 76.3493 61.242 76.3101C59.8593 77.4651 60.3042 77.0695 59.4991 77.6646C58.9268 78.1395 59.9247 77.3773 58.7369 78.4027C57.3275 79.6356 58.1979 78.7442 56.4123 80.3507C56.3965 80.3852 56.3808 80.4195 56.3652 80.4539C55.9597 80.7972 55.5732 81.1297 55.1828 81.4738C55.2484 81.4377 55.311 81.4047 55.3727 81.3727C54.5437 82.1249 53.5515 83.1612 53.234 83.3946C54.0508 82.6084 53.9331 82.5652 53.7259 82.7365C53.4841 82.9646 51.5388 84.7928 50.1005 87.002C50.1005 87.002 50.1005 87.002 50.1005 87.002L50.0486 87.0821L49.9967 87.002C48.7308 85.0752 47.1203 83.502 46.5478 82.9135C45.0456 81.4131 43.8146 80.2573 42.3069 79.0295C43.3002 79.9175 46.7447 83.068 47.3154 83.8064C47.3712 83.872 47.2785 83.9306 47.7393 84.2501C48.4742 85.0811 49.2585 86.0084 49.9373 87.0404L50.0486 87.2122L50.1598 87.0404C50.1598 87.0404 50.1598 87.0404 50.1598 87.0404C50.6019 86.3456 51.1863 85.5788 51.7735 84.8969C51.7521 84.9708 51.7313 85.0443 51.7111 85.1175C50.9215 85.9493 50.3403 86.9874 50.2284 87.0848C50.2284 87.0848 50.2284 87.0848 50.2284 87.0849L50.0486 87.3625L49.8688 87.0849C49.8593 87.0558 49.8671 87.0455 49.8955 87.0567C49.7526 86.8364 49.5999 86.6138 49.4376 86.389C49.4205 86.4014 49.4034 86.4138 49.3862 86.4261C49.1448 86.091 48.8673 85.7342 48.6195 85.4316C48.6359 85.4182 48.6523 85.4048 48.6687 85.3914C48.4545 85.1292 48.2289 84.8643 47.9926 84.5967C47.9521 84.5829 47.9114 84.5692 47.8707 84.5554C47.2573 83.7394 44.6003 81.3533 45.8151 82.3459C45.4691 82.0098 45.0991 81.6594 44.7397 81.3261C44.7297 81.3391 44.7197 81.3521 44.7098 81.3651C44.558 81.2276 44.4044 81.0895 44.2489 80.9508C44.3097 80.986 44.3702 81.0212 44.4306 81.0565C43.7146 80.4364 43.051 79.7452 42.5552 79.3842C42.8607 79.6655 43.156 79.9401 43.4722 80.2367C42.8761 79.6733 41.7494 78.7654 41.6368 78.6714C41.323 78.4042 41.1856 78.2413 40.8582 77.9624C40.5608 77.7097 40.5832 77.7652 40.528 77.7175C38.9074 76.3278 39.625 76.7234 38.7491 76.2387C38.6843 76.1524 38.6195 76.0658 38.5545 75.979C38.4325 75.9061 38.3101 75.8331 38.1872 75.76C37.7015 75.3585 37.2067 74.951 36.7291 74.5581C36.8691 74.7159 37.0088 74.8729 37.1481 75.0292C36.4162 74.4532 36.1149 74.1207 36.0456 74.0619C35.8473 73.8951 35.7271 73.8534 35.6646 73.8027C32.6864 71.3738 34.523 72.8231 33.1431 71.461C32.5744 71.0812 33.0575 71.5718 33.0909 71.6895C32.4093 71.0878 32.1802 70.9248 31.4391 70.3064C31.2464 70.1453 31.0644 69.9414 30.9427 69.839C30.8359 69.7492 30.4828 69.5112 30.2308 69.3004C29.8117 68.9499 29.2714 68.4593 28.6984 67.9701C28.2247 67.5679 26.7545 66.3432 25.7614 65.4526C25.3374 65.0728 25.4649 65.1292 25.3558 65.0307C25.3105 64.9897 24.9464 64.7299 24.6766 64.4836C22.4737 62.4736 20.3128 60.3052 18.3058 58.0684C16.8861 56.4859 15.4763 54.8504 14.2396 53.1091C13.9761 52.7358 14.1587 52.9038 14.0457 52.7399C14.008 52.6833 13.8814 52.6682 13.5183 52.0663C13.3884 51.8487 13.6038 52.0555 13.4687 51.8469C13.4033 51.7438 13.3062 51.7517 12.9052 51.1603C12.1757 50.0744 11.945 49.4116 11.8841 49.3142C11.7726 49.1279 11.7424 49.2182 11.6007 48.9655C10.9047 47.7127 10.395 46.6577 9.90982 45.468C9.60984 44.9521 8.44642 40.9872 8.49593 40.7379C8.43299 40.2327 8.67653 40.6692 8.56176 40.0316C8.49141 39.8589 8.42274 39.6849 8.35584 39.5095C8.3648 39.801 8.37952 40.0926 8.39988 40.3841C8.30803 39.5883 8.12726 38.6968 8.08519 38.1031C8.07259 37.994 8.08861 36.9794 8.08435 36.4628C8.1175 36.6809 8.15374 36.9019 8.19296 37.1192C8.21736 37.0412 8.24223 36.9633 8.26755 36.8857C8.20189 35.8661 8.25116 34.7852 8.38293 33.7344C8.43076 33.3643 8.48115 33.4987 8.53689 33.1244C8.93398 30.946 8.54251 31.3888 9.65119 29.5131C9.347 30.1691 8.84367 32.731 8.80643 33.1053C8.74817 33.3555 8.19233 34.3241 8.68812 34.0006C8.50942 36.1195 8.3708 34.2642 8.35948 36.2467C8.41446 36.208 8.46959 36.1695 8.52488 36.1313C8.5512 36.8135 8.59969 37.3289 8.52921 37.7504C8.77772 37.8781 8.84871 40.2032 9.1836 41.4469C9.60568 43.241 10.3561 45.1859 11.1273 46.83C11.3896 47.3929 11.4693 47.7496 11.5043 47.8201C11.5562 47.923 11.7732 48.1756 11.8806 48.379C12.2514 49.1428 13.4997 51.4447 14.0402 51.8472C11.2535 47.6616 9.13185 42.8374 8.84858 37.7374C8.65077 38.3965 8.76163 33.1918 8.95988 32.9705C9.00441 32.7328 9.06006 32.9484 9.07706 32.8785C9.20191 32.36 9.17095 31.8818 9.20817 31.7119C9.23645 31.5845 9.35467 31.3299 9.46494 30.8966C9.48563 30.8161 9.42823 30.777 9.45117 30.69C9.60476 30.115 9.78082 29.5448 9.98356 28.9619C9.99652 28.9265 10.1391 28.812 10.1928 28.6655C10.2448 28.523 10.2053 28.3536 10.2186 28.3175C10.3834 27.8763 10.7595 27.142 10.9563 26.72C11.0236 26.5733 10.9115 26.6451 10.9887 26.4805C11.2273 25.9812 11.2858 26.1788 11.5455 25.5839C11.6361 25.3821 11.5319 25.345 11.7469 24.9733C11.901 24.7098 12.0548 24.8319 12.084 24.793C12.1182 24.7406 12.5174 23.7391 12.8188 23.5004C12.6992 24.3313 13.2763 22.7959 13.114 22.8006C13.365 22.4773 13.6246 22.1542 13.8928 21.8312C13.9449 21.6937 13.9984 21.5557 14.0532 21.4172C14.3749 21.0457 14.6586 20.7065 14.9263 20.3791C14.9263 20.3791 14.9263 20.3791 14.9263 20.3791C15.5798 19.589 16.1242 18.9097 17.0151 18.1189C17.0705 18.0522 18.1849 17.2044 18.1728 17.2926C17.5747 17.8781 16.9752 18.4503 16.489 18.7195C16.1058 19.5617 15.9101 19.3951 15.0799 20.4968C15.0799 20.4968 15.0799 20.4968 15.0799 20.4968C15.0687 20.5122 15.0573 20.5278 15.0459 20.5437C14.7581 20.9445 14.8075 21.0212 14.7743 21.0668C13.6699 22.5724 12.192 25.1187 11.4724 26.113C11.3758 26.4498 11.954 25.3572 11.7807 25.8056C11.7417 25.8988 10.9878 27.4719 10.5327 28.7092C10.0356 30.0227 9.73319 31.0492 9.88047 30.0325C9.82592 30.2387 9.77448 30.4442 9.72611 30.6492C9.90992 30.9144 9.61174 31.9133 9.39555 31.7494C9.42376 31.8602 9.45274 31.9701 9.48247 32.0793C9.48462 32.2832 9.46143 32.5174 9.41924 32.8407C9.32965 33.4467 9.01704 35.6107 9.13839 37.6775C9.22403 39.7383 9.68901 41.6639 9.75072 41.8462C9.80565 41.8421 9.86056 41.8378 9.91544 41.8336C9.218 38.661 8.94479 35.4044 9.86488 31.9647C9.78801 32.0545 9.71186 32.1451 9.63644 32.2363C9.99896 30.8447 10.4936 29.5126 11.0886 28.2434C10.6093 29.6567 10.0432 31.9509 9.75799 33.4781C9.70389 33.7468 9.65661 33.5377 9.63835 33.5987C9.59246 33.7603 9.69563 33.9459 9.64708 34.5483C9.58484 35.1493 9.45424 36.63 9.46953 36.7753C9.47483 37.0441 9.64549 37.754 9.67936 38.1997C9.72404 38.7876 9.60227 38.4021 9.61008 38.5203C9.64501 39.01 9.74513 39.4446 9.79555 39.8267C9.86059 40.3928 9.95551 41.6038 10.2765 41.9349C10.1892 41.5363 10.1121 41.1347 10.0458 40.7314C10.5469 42.8731 10.8482 44.6322 11.9338 46.5649C12.3643 46.9088 11.615 45.2856 12.3222 46.624C12.2058 46.3745 12.094 46.1268 11.984 45.8738C11.9092 45.8352 11.8344 45.7964 11.7596 45.7573C11.6116 45.2986 11.4771 44.8395 11.3565 44.3806C11.3553 44.5247 11.3556 44.6692 11.3574 44.8141C10.7255 43.2574 10.2745 41.5904 10.4389 40.9662C10.3668 40.9464 10.2946 40.9264 10.2224 40.906C9.96516 39.3707 9.58191 37.0578 9.9909 37.4736C9.96777 37.4017 9.94496 37.3294 9.92248 37.257C9.98617 36.3207 9.83489 36.7185 9.81731 36.3698C9.79457 36.2703 9.99466 34.4648 10.0579 35.2737C10.303 33.5223 9.90648 34.0266 9.94839 33.5402C10.2716 32.4478 10.5475 30.4009 10.6135 31.3026C10.6663 31.1452 10.721 30.9878 10.7777 30.8304C10.7032 30.237 11.1277 29.7848 11.4225 29.2426C11.5014 29.0433 11.5726 28.8724 11.6517 28.6869C11.6261 28.5342 11.6021 28.38 11.5796 28.2243C12.6886 26.6265 11.5281 26.7032 12.7019 26.3122C12.6886 26.454 12.6768 26.5947 12.6609 26.7458C12.5362 27.0538 12.4191 27.3598 12.3093 27.6637C12.8869 26.4473 13.4832 25.4011 14.2196 24.2602C15.1008 23.2448 15.4672 22.4752 16.3122 21.4414C16.3122 21.4414 16.3122 21.4414 16.3123 21.4414C16.4906 21.2265 16.6923 21.0077 16.9289 20.7864C17.0168 20.6464 17.1054 20.5092 17.198 20.371C17.2384 20.6325 16.7929 21.0747 17.6501 20.2692C17.8189 20.2951 17.3025 20.8803 16.994 21.0879C16.9169 21.138 17.3093 20.4985 16.772 21.1367C16.4839 21.4926 16.9279 21.1084 16.543 21.6182C16.543 21.6182 16.543 21.6182 16.543 21.6182C16.4411 21.7556 16.2866 21.9525 16.0633 22.2347C16.1315 22.2009 16.2 22.1672 16.2685 22.1336C16.1493 22.2923 16.0322 22.4506 15.9172 22.6084C15.75 22.7021 15.5838 22.7964 15.4186 22.8915C15.2626 23.3235 15.2567 23.6062 14.6996 24.416C14.8086 24.1509 14.4611 24.3889 14.2006 24.8255C14.2506 24.8554 14.3007 24.8854 14.3507 24.9153C13.7685 25.9749 13.8264 25.5351 13.4793 26.4557C13.3933 26.52 13.3077 26.5847 13.2226 26.6497C13.1181 27.2222 12.4528 29.0732 12.3397 28.6376C12.3842 29.2254 11.8706 30.2873 11.544 30.6372C11.5882 30.6849 11.6324 30.7324 11.6768 30.7796C11.6211 31.0001 11.5693 31.2196 11.5213 31.4381C11.4556 31.5499 11.3909 31.6621 11.3274 31.7747C11.3196 31.9426 11.3138 32.1098 11.3101 32.2757C11.2334 32.3597 11.1574 32.4445 11.082 32.5299C11.0924 32.7998 11.1081 33.0664 11.1287 33.3297C11.0576 33.4772 10.9883 33.6255 10.9209 33.7746C11.0213 33.7964 10.8571 35.365 10.7785 35.7954C10.8046 35.9265 10.8318 36.0567 10.8601 36.1861C10.8043 36.2482 10.7489 36.3108 10.6939 36.3739C10.7345 36.4706 10.7757 36.5673 10.8174 36.665C10.7725 36.8901 10.7316 37.1163 10.6948 37.3435C10.9833 38.2457 10.7738 38.2854 10.789 38.4963C10.812 38.8844 11.1444 40.1757 11.1828 40.3918C11.2123 40.6111 11.144 40.7347 11.1701 40.9131C11.6924 43.8427 11.6859 42.5854 11.8641 43.1505C11.9765 43.4554 11.968 43.6944 12.0672 43.9628C12.2076 44.4293 13.2455 46.6874 13.3175 46.8128C13.3935 47.0096 12.8559 46.7203 13.2337 47.3002C13.4103 47.2371 13.8992 48.6353 13.8264 47.9005C14.0736 48.4431 14.3388 48.9851 14.621 49.5259C14.7756 49.3509 15.0233 50.0818 15.4602 50.7623C16.0664 51.7491 17.6846 53.8045 17.4752 53.8509C17.6788 54.0482 17.885 54.2464 18.0902 54.4411C19.1872 56.0038 20.4539 57.4187 21.7372 58.8518C25.5378 63.1011 30.1525 67.3512 34.4929 71.1446C34.7021 71.3278 34.6463 71.3323 34.7969 71.4637C35.5827 72.1506 37.6643 73.9001 38.7875 74.8757C39.1447 75.1861 39.2954 75.3608 39.4071 75.4589C39.785 75.7914 39.7231 75.6796 39.8969 75.8314C40.1827 76.0796 41.627 77.3864 42.1295 77.8372C42.3831 78.0631 42.7027 78.3025 42.986 78.5695C43.0105 78.5925 42.9423 78.5765 42.9631 78.5958C43.4869 79.0702 43.1891 78.765 43.3653 78.9253C44.6426 80.0909 45.9938 81.3458 47.289 82.6975C47.6217 83.0433 48.0827 83.5726 48.3401 83.8661C48.4449 83.9857 48.2758 83.757 48.6348 84.1695C48.7561 84.3104 48.7747 84.378 48.9064 84.5367C49.4576 85.2103 49.7248 85.3969 50.1149 86.0706C50.2438 86.2511 50.3818 86.4506 50.5208 86.6625H49.5763C49.5763 86.6625 49.5763 86.6625 49.5763 86.6625C50.3485 85.4233 51.7225 83.828 52.4692 83.0473C52.6867 82.817 52.8079 82.7169 53.0233 82.4953C53.1855 82.3288 53.4073 82.064 53.6432 81.8295C53.875 81.5988 54.2695 81.2497 54.7425 80.7997C55.2112 80.3519 55.8166 79.7724 55.9303 79.6687C56.0665 79.544 56.1541 79.5122 56.2917 79.3867C56.6935 79.0178 57.761 78.0183 58.3027 77.5397C58.8605 77.0446 59.2193 76.7583 59.4158 76.5874C59.5979 76.429 59.7916 76.2184 59.8757 76.1452C60.0055 76.0323 60.0661 76.031 60.2265 75.8923C60.4901 75.6645 60.7477 75.4102 61.1499 75.0639C68.3966 68.8364 75.5737 62.8162 81.3337 55.7319C81.9669 54.9422 82.2806 54.4618 83.1682 53.2679C83.5228 52.7842 83.4423 53.0384 83.6956 52.647C83.8078 52.4716 83.7246 52.4804 83.8712 52.2584C84.5238 51.2755 85.2583 50.1761 85.513 49.7284C85.6127 49.5551 85.6605 49.3179 85.8543 48.9621C87.3105 46.3173 88.6341 43.0048 89.0554 39.8982C89.3158 38.2543 89.3113 35.7648 88.9981 33.9036C88.3719 29.563 86.0817 25.1955 83.3982 21.7378C83.3982 21.7378 83.3982 21.7378 83.3982 21.7378C82.9441 21.146 82.4722 20.6097 81.9755 20.1112C77.0481 15.1198 69.0668 13.7684 62.0685 15.6742C65.3858 14.8625 70.0808 14.6864 73.6247 15.6877C77.3779 16.6711 80.8134 18.7861 83.1918 21.8959C83.1918 21.8959 83.1918 21.8959 83.1918 21.8959C87.7283 27.6182 90.234 34.7641 88.4858 41.691C87.6664 45.4727 85.3086 50.0216 82.6357 53.5871C82.5163 53.75 82.3097 54.1244 82.0399 54.4722C81.9855 54.5457 81.2108 55.3971 80.9643 55.7013C81.3264 55.519 80.247 56.6245 79.9481 56.9817C79.5743 57.4393 78.8114 58.4525 77.8367 59.4534C76.946 60.3657 77.1406 60.0652 77.091 60.1148C76.7668 60.4292 76.7216 60.6101 76.4901 60.8668C75.5877 61.9547 70.2688 66.9822 68.7043 68.3227C68.3108 68.6744 68.2704 68.6501 68.1806 68.7303C67.9432 68.9423 67.6332 69.2763 67.2527 69.6116C66.5689 70.2146 65.7495 70.8781 65.3668 71.2114C64.4625 72.0017 62.7523 73.5322 61.5608 74.5584C61.2236 74.8492 61.2208 74.8021 61.069 74.9334C60.4119 75.5016 58.6909 77.0506 57.8785 77.7729C56.5318 78.966 55.1811 80.1623 53.8675 81.465C53.775 81.5359 53.6831 81.6067 53.5919 81.6775C53.4738 81.8156 53.3575 81.953 53.2429 82.0899C51.8661 83.4791 50.5568 84.9241 49.4728 86.5955C49.4728 86.5955 49.4728 86.5955 49.4728 86.5955H50.6244C49.9871 85.6214 49.239 84.6996 48.4478 83.808C48.2368 83.554 47.0204 82.2334 46.821 82.0436C46.6539 81.8751 46.4635 81.734 46.2102 81.4782C45.8516 81.1185 46.2455 81.4055 45.627 80.8361C45.4608 80.6845 45.5915 80.8487 45.2725 80.5581C45.186 80.4657 43.0657 78.5396 42.9599 78.4524C42.7737 78.2811 42.6464 78.0797 42.598 78.0346C42.3461 77.8003 42.3234 77.8484 42.1463 77.698C41.6298 77.2597 41.0035 76.666 40.917 76.5916C39.8976 75.7122 38.0084 74.148 36.9859 73.2315C36.8434 73.1037 36.8887 73.0847 36.8642 73.0616C36.7057 72.9126 36.5712 72.863 36.4133 72.7284C35.5665 72.0067 34.2805 70.8441 33.4541 70.1026C33.3592 70.0176 33.1397 69.8602 32.9702 69.7072C32.0118 68.8392 32.3546 69.0814 32.3009 69.0317C32.1746 68.9126 31.9091 68.7424 31.5657 68.4387C30.6748 67.6549 28.9919 66.1041 28.0736 65.2236C27.3826 64.5637 27.4398 64.524 27.395 64.4799C27.3006 64.3854 26.9974 64.1673 26.5447 63.7339C25.6757 62.8983 25.8133 62.9537 25.4613 62.6053C25.4321 62.5756 25.4458 62.6663 25.0551 62.2798C24.2959 61.538 22.6982 59.771 21.9537 58.9302C21.6654 58.6088 21.5556 58.5723 21.2605 58.238C20.7869 57.7092 19.8278 56.4567 19.7516 56.3568C19.7295 56.3296 19.626 56.3149 19.4959 56.1544C19.3528 55.978 19.2418 55.7801 19.1371 55.6483C18.537 54.9024 17.463 53.6606 17.944 53.8629C17.7113 53.6562 17.4801 53.4488 17.2502 53.2406C16.1149 51.6157 15.0646 49.991 14.1575 48.2804C13.9557 47.899 13.8441 47.5448 13.6836 47.2142C13.5112 46.8834 12.7947 45.4646 12.702 45.2034C12.4871 44.7631 11.6758 42.2013 11.6425 41.8694C11.5033 41.2355 11.527 40.5935 11.4586 40.3423C11.4036 40.14 11.3561 40.346 11.2734 39.9542C11.1227 39.273 11.1354 38.0963 11.1308 37.8893C11.1287 37.7997 11.0617 37.973 11.0403 37.1324C11.0333 36.6784 11.1119 36.4351 11.1163 36.2749C11.121 36.2242 10.9894 36.3005 11.0636 35.4104C11.1223 34.795 11.25 34.5402 11.257 34.476C11.27 34.3785 11.2032 34.1348 11.2668 33.7553C11.4013 32.859 11.9169 31.2576 12.212 30.4481C12.269 30.2882 12.1292 30.3081 12.3746 29.6654C12.5553 29.2065 12.6115 29.333 12.6806 29.1671C12.7901 28.9106 12.8389 28.479 13.111 27.8967C13.3298 27.1039 16.3578 22.4805 16.9604 21.9381C16.9604 21.9381 16.9604 21.9381 16.9604 21.9381C16.977 21.9188 16.9893 21.905 16.997 21.897C17.135 21.7527 17.2796 21.576 17.3821 21.535C17.3684 21.6314 17.3556 21.7277 17.3436 21.8239C17.2374 21.9121 17.1578 21.9847 17.0982 22.0437C17.0982 22.0437 17.0982 22.0437 17.0982 22.0437C16.7508 22.4 17.0138 22.2957 16.8943 22.4727C16.6806 22.7785 15.8889 23.8551 15.7616 24.1389C15.7144 24.2402 15.941 24.0893 15.6639 24.6144C15.3652 25.1857 15.0394 25.3605 15.1331 25.7128C14.4053 26.3696 14.28 27.2697 14.8513 26.3981C15.0518 26.0779 16.2744 24.113 17.6245 22.4471C17.6245 22.4471 17.6245 22.4471 17.6245 22.4471C18.3383 21.5488 19.0721 20.8531 19.3746 20.5778C20.0042 19.9762 21.2628 18.9059 22.2253 18.3839C22.7708 18.0498 24.2218 17.3916 24.2146 17.5548C24.7471 17.3476 24.1407 17.458 24.2442 17.394C24.4536 17.2379 26.1888 16.7221 26.5272 16.6479C28.1463 16.1561 30.3381 15.7318 32.0374 15.8936C31.9568 15.9268 31.877 15.9605 31.7975 15.9948C31.4159 16.043 29.6664 16.093 29.4895 16.2982C31.9986 15.9746 34.6177 16.0947 37.1477 16.6639C37.1452 16.4817 40.2458 17.4315 40.343 17.5915C40.2668 17.6179 40.1908 17.645 40.1149 17.6727C38.4961 16.8621 38.5343 17.1985 37.4084 16.7512C36.9259 16.6368 37.0441 16.7641 36.8009 16.731C34.3794 16.4917 36.8146 16.4953 34.9593 16.3145C35.4841 16.5234 33.974 16.3949 33.3024 16.4017C33.1486 16.3772 31.152 16.3546 30.9184 16.3962C29.5836 16.4701 27.3916 16.969 26.1674 17.2903C25.209 17.5887 24.741 17.9089 23.9514 18.3095C23.3577 18.6233 23.4947 18.4633 23.2139 18.6086C22.6289 18.9232 22.5859 19.2677 22.0397 19.1741C21.688 19.4549 21.3487 19.7508 21.0292 20.056C20.9945 20.0094 20.9598 19.9628 20.9252 19.9162C20.704 20.0862 20.4835 20.2655 20.2741 20.4455C20.2493 20.5434 20.2256 20.6412 20.2031 20.7389C19.5024 21.2701 19.6776 20.9263 19.4425 20.9187C19.2964 21.0443 19.1519 21.1734 19.009 21.3059C18.996 21.5032 18.9869 21.6997 18.9817 21.8953C18.6965 22.2033 18.4251 22.5209 18.1604 22.8578C18.1604 22.8578 18.1604 22.8578 18.1604 22.8578C17.846 23.2594 17.5467 23.657 17.2619 24.0508C17.1781 24.0682 17.0944 24.0859 17.0107 24.1037C17.0575 24.1386 17.1043 24.1735 17.1511 24.2083C16.2573 25.5043 15.4101 26.9296 14.7425 28.3358C14.6308 28.7308 15.8455 26.5571 15.9802 26.3976C16.5506 25.4269 18.1258 23.0829 18.341 23.1747C18.3592 23.1355 18.3811 23.0926 18.4065 23.0465C18.4065 23.0465 18.4065 23.0465 18.4065 23.0465C18.7115 22.4054 19.8522 21.261 20.3673 21.0607C19.7395 21.6116 19.1634 22.2088 18.6326 22.8574C18.704 22.8796 18.7753 22.9023 18.8464 22.9252C18.7337 23.0069 18.6346 23.0824 18.5464 23.1536C18.5464 23.1536 18.5464 23.1536 18.5464 23.1537C17.8754 23.7435 17.7332 24.0032 17.333 24.9951C17.2547 24.9442 17.1764 24.8933 17.098 24.8424C16.9119 25.673 15.6419 26.7333 15.9843 26.9524C15.7349 27.3231 15.5083 27.6717 15.2754 28.0567C14.9288 28.9448 15.6775 27.7318 14.2423 31.0262C14.1529 31.2574 14.0732 31.1799 13.9646 31.5335C13.9372 31.6409 13.8713 32.2342 13.5986 33.3694C13.5577 33.5445 13.4717 33.5434 13.424 33.7246C13.3094 34.1402 13.3512 35.0097 13.1408 34.5924C12.8454 36.3089 13.1676 35.6068 13.2041 36.1357C13.2397 36.4861 13.0874 36.4113 13.111 36.7209C13.1541 37.1026 13.2717 36.8157 13.2541 38.3382C13.2348 38.1687 13.2176 37.9991 13.2027 37.8292C13.1629 37.9182 13.1238 38.0079 13.0856 38.0981C13.2294 38.9597 13.0911 38.9012 13.359 39.279C13.3242 39.9303 13.3941 40.4925 13.5916 41.3632C14.0313 43.0661 13.9985 42.1027 14.3156 44.1629C14.4645 44.4622 14.6219 44.7665 14.7792 45.0577C14.8966 45.6093 14.6227 45.2403 14.9224 46.0222C14.8645 45.3188 15.4913 46.9904 15.8003 47.1604C15.7729 47.2109 15.7458 47.2616 15.7188 47.3123C15.7996 47.4816 15.8822 47.6511 15.9666 47.8207C15.9988 47.8029 16.0309 47.7851 16.0631 47.7674C16.1509 48.0065 16.2425 48.2462 16.338 48.4864C16.458 48.6378 16.5793 48.7891 16.7018 48.9402C16.7879 49.2566 16.8779 49.5699 16.9757 49.8862C17.0714 50.0617 17.169 50.2373 17.2684 50.413C17.2787 50.329 17.2895 50.245 17.3008 50.1612C17.4168 50.3927 17.536 50.6244 17.6584 50.8562C17.5705 50.5481 17.7485 50.6596 18.1729 51.3419C18.5295 51.9017 17.9733 51.3753 18.828 52.5341C18.8897 52.6116 19.0798 52.7 19.8822 53.8017C20.866 55.1227 20.3356 54.528 20.5069 54.7677C20.5407 54.8139 20.8918 55.1867 21.1875 55.5568C21.3546 55.7666 21.4812 56.0016 21.5034 56.0296C21.6081 56.1593 21.6857 56.1548 21.8311 56.3348C22.1987 56.7908 22.6854 57.4333 23.0577 57.8717C23.2277 58.0724 23.4143 58.2368 23.4909 58.3263C23.6095 58.4654 23.7221 58.6796 23.8439 58.8198C24.2943 59.3384 25.1081 59.9948 25.157 60.4009C25.7491 60.7368 26.5225 61.9426 26.5512 61.7644C27.7135 63.1096 31.2189 66.3496 30.9983 66.4025C31.8468 66.9781 31.6992 67.0089 32.0101 67.3007C32.3575 67.6264 32.1996 67.4319 32.4732 67.6931C33.119 68.3079 33.7339 68.8993 34.3799 69.4968C34.2623 69.4223 34.1445 69.3478 34.0264 69.2733C34.7012 69.9057 34.5046 69.646 35.2153 70.2823C36.5204 71.4469 35.9464 70.9822 36.0976 71.204C36.0783 71.107 37.6156 72.5073 37.7663 72.6513C37.856 72.7378 37.403 72.431 38.3549 73.2518C38.318 73.1889 38.2811 73.1259 38.2442 73.0627C38.6406 73.4602 39.8602 74.4999 40.0455 74.677C40.1355 74.7633 40.5025 75.3176 41.0474 75.628C41.0887 75.6928 41.1299 75.7575 41.171 75.822C41.6908 76.2549 42.1845 76.6687 42.7022 77.1076C42.7595 77.2079 42.8166 77.308 42.8736 77.4076C43.0328 77.5524 43.1909 77.6967 43.3478 77.8403C43.2641 77.7215 43.18 77.6022 43.0955 77.4824C44.0511 78.3715 45.2683 79.4562 45.3906 79.7153C45.6072 79.8963 45.8142 80.0703 46.0316 80.2561C46.1457 80.4131 46.2584 80.5694 46.3694 80.7248C47.3212 81.6575 47.315 81.6267 47.9911 82.2851C47.9484 82.2764 47.9056 82.2676 47.8627 82.2589C48.355 82.7237 49.2041 83.6063 49.8275 84.3738C50.1069 84.7083 50.5984 85.4216 50.6583 85.5062C50.7027 85.5632 51.0176 85.9152 51.2194 86.2101H48.8777C48.8777 86.2101 48.8777 86.2101 48.8777 86.2101C48.987 86.0298 49.0956 85.8858 49.1558 85.8733C50.079 84.4656 50.5757 84.0213 51.0163 83.4994C51.3114 83.1619 51.3939 83.0275 51.7144 82.6738C52.1662 82.1758 52.6756 81.6715 52.9298 81.4105C53.0823 81.254 53.092 81.2048 53.1986 81.0963C53.7084 80.5815 53.4237 80.9033 53.9766 80.3584C54.0362 80.3003 54.3935 79.9025 54.8477 79.4765C55.098 79.2399 55.7967 78.6407 55.8554 78.5871C56.1087 78.3518 55.8442 78.4816 56.7866 77.7432C56.7506 77.755 56.7147 77.7668 56.6788 77.7786C57.7596 76.7342 57.972 76.6424 58.1957 76.4463C58.2239 76.4214 58.4716 76.1601 58.6347 76.0185C58.9101 75.7795 59.0461 75.7101 59.1077 75.6572C59.3315 75.4651 60.021 74.8237 60.5108 74.4394C60.3384 74.4407 61.9446 72.9412 62.384 72.7322C62.6532 72.4547 62.9233 72.1753 63.1942 71.8938C63.3389 71.7948 63.488 71.6924 63.6295 71.5965C63.6923 71.5083 63.755 71.4198 63.8177 71.3311C64.2633 70.9981 64.712 70.6636 65.1635 70.3276C65.1553 70.2618 65.147 70.1959 65.1386 70.1299C65.2588 70.0284 65.3792 69.9267 65.4998 69.8249C65.6197 69.7744 65.7355 69.7278 65.8538 69.6795C65.9918 69.542 66.1299 69.404 66.2679 69.2657C66.2826 69.2083 66.2972 69.1507 66.3118 69.0931C67.0534 68.3503 66.8766 68.9615 68.1461 67.3801C68.3887 67.1881 68.6315 66.9957 68.8744 66.8028C69.0394 66.4594 69.5693 66.0638 69.9366 65.6853C70.1955 65.4177 70.1442 65.3899 70.504 65.0337C70.8635 64.6768 70.8867 64.7301 70.9151 64.7027C71.2108 64.4145 71.398 64.1576 71.6179 63.9499C71.6509 63.9185 71.7766 63.8873 72.0501 63.6167C72.3235 63.3458 72.4371 63.1266 72.8442 62.7253C73.0525 62.5195 73.1513 62.5016 73.3349 62.3179C74.2146 61.4449 74.8299 60.2998 75.7107 59.8864C75.8204 59.6986 76.692 58.4444 77.1046 57.9619C77.7528 57.2136 77.5674 57.5586 77.8309 57.2644C77.868 57.2218 78.0454 56.9696 78.5666 56.3248C78.6596 56.2094 78.6033 56.2051 78.616 56.188C79.2154 55.4411 80.3719 53.9619 80.9632 53.1094C81.0177 53.0324 81.1866 52.5422 81.7904 51.9722C82.3415 50.8788 83.7788 49.0951 84.249 47.577C84.3386 47.3824 84.4985 47.1764 84.5365 47.0904C84.8552 46.34 84.6119 46.5332 85.5052 44.9661C85.3694 45.0654 85.4485 44.6383 85.6439 44.0818C85.9283 43.2471 85.8998 43.9049 86.095 43.2242C86.0485 43.2075 86.0021 43.1908 85.9556 43.1741C86.5167 41.6647 86.3816 41.2894 86.5999 39.7524C86.6739 39.2002 86.8426 38.3988 86.8466 38.2678C86.8515 38.2159 86.7416 37.6063 86.7383 37.5504C86.7366 37.2294 86.7929 37.0502 86.7847 36.7721C86.7641 35.858 86.4391 34.8022 86.7759 34.9675C86.6773 34.7225 86.5724 34.4753 86.4642 34.2452C86.6348 33.273 85.98 32.6588 86.2481 32.3904C86.1366 32.2446 86.0231 32.101 85.9073 31.9583C85.0197 28.9769 83.3974 26.0962 81.3146 23.3346C81.3146 23.3346 81.3146 23.3346 81.3146 23.3346C80.7661 22.6054 80.1685 21.9432 79.5041 21.3301C79.3359 21.295 78.0696 20.2435 77.9907 20.1949C77.7069 19.9096 78.1885 19.9344 77.4714 19.5407C77.3416 19.5827 77.2132 19.6262 77.0862 19.6711C76.1945 19.1926 76.6628 19.3479 76.3375 19.0913C76.1809 19.0246 76.1961 19.1217 75.9889 19.0243C74.8888 18.4605 72.3856 17.6463 70.9493 17.4532C70.6637 17.4066 70.7129 17.345 70.6236 17.3308C70.3775 17.2936 69.8847 17.3137 69.386 17.2679C66.3066 16.9031 61.6825 17.5259 58.7474 18.9103C58.5475 18.9987 58.4909 18.9582 58.3562 19.0206C58.1679 19.1076 57.7895 19.3599 57.6004 19.4603C57.4222 19.5539 57.281 19.584 57.0915 19.6918C56.2209 20.1824 55.1961 21.0214 54.3536 21.7009C54.2741 21.7433 53.3575 22.466 53.3398 22.4923C53.1902 22.5829 53.7033 21.6824 52.6072 22.994C53.4495 21.7432 52.9356 21.9383 51.833 23.6559C52.3092 22.7577 52.89 21.92 53.5525 21.1524C53.5371 21.1386 53.5217 21.1247 53.5063 21.1108C52.813 21.7439 52.2013 22.4697 51.5298 23.7387C51.5357 23.6924 51.5416 23.6462 51.5477 23.5998C52.0501 22.4277 52.9725 21.1887 53.544 20.3936C52.492 21.3819 51.5895 22.5558 50.928 23.8761C50.9461 23.804 50.9647 23.7319 50.9837 23.6599C51.2253 22.9925 52.0051 21.6536 52.3421 21.1695C52.9708 20.2351 52.6446 20.6002 52.2188 21.1502C51.7936 21.6984 51.3455 22.4713 51.4874 22.1485C52.7071 20.0682 54.4715 18.3397 56.4767 17.018C56.4992 16.9615 54.4855 18.1417 52.9277 19.8759C51.3146 21.5671 50.3904 23.7649 50.3476 23.6905C50.6194 22.96 50.9523 22.2556 51.3418 21.5794C51.1259 21.8548 50.9214 22.1406 50.7295 22.4365C50.7602 22.3437 50.7918 22.251 50.8242 22.1584C51.4031 20.9584 52.1515 19.8346 53.0236 18.8137C50.3544 21.9341 49.9912 23.9133 49.4373 24.7603C49.4571 24.6484 49.4781 24.5368 49.5003 24.4254C49.7634 23.5657 51.5761 19.7022 53.2536 18.1158C52.855 18.3752 51.6501 19.9717 51.4125 20.3181C51.3367 20.4115 51.5298 20.0348 51.3565 20.253C50.8176 20.7758 49.5273 23.6172 49.6726 23.1885C49.7001 23.0435 50.1214 21.7648 50.8447 20.5219C51.5478 19.2677 52.5389 18.097 52.884 17.7379C51.2268 19.3772 49.9255 21.5024 49.2123 23.7366C49.5325 22.2893 49.7948 20.8748 51.4031 18.5733C51.6315 18.2058 50.7977 19.1699 50.1114 20.3921C49.4032 21.6025 48.9348 23.0567 48.9046 23.1171C49.1574 22.1133 49.5137 21.1277 49.964 20.1768C49.5618 20.9665 49.2257 21.7887 48.9664 22.627C48.9536 22.6242 48.9408 22.6215 48.928 22.6188C49.5797 20.4375 50.5413 18.4409 52.3138 16.4576C52.1852 16.4424 51.1608 17.6781 50.7429 18.3351ZM26.9762 17.4002C27.0381 17.5065 26.3805 17.6746 26.022 17.7977C26.0822 17.8007 26.1424 17.804 26.2025 17.8076C25.4196 18.0213 24.0435 18.5885 24.1033 18.8418C23.6184 19.1175 23.7491 18.8178 23.5774 18.8787C23.5063 18.9027 22.9261 19.3548 22.3633 19.5409C22.2476 19.6157 22.1329 19.692 22.0192 19.7697C22.0408 19.8525 22.0629 19.9351 22.0854 20.0176C21.8767 20.0423 21.6647 20.0729 21.4551 20.1061C23.0549 18.8973 24.9306 17.9838 26.9732 17.4011C26.9742 17.4008 26.9752 17.4005 26.9762 17.4002ZM13.5551 32.5799C13.3023 33.3314 13.0436 34.4737 13.2937 34.2677C13.3623 33.7965 13.4496 33.3218 13.557 32.8421C13.5558 32.7552 13.5551 32.6677 13.5551 32.5799ZM65.1381 70.4694C65.7901 70.0074 66.2648 69.4693 67.1729 68.6582C67.1582 68.6433 67.1436 68.6285 67.1289 68.6136C66.792 68.9926 65.8166 69.8399 65.1381 70.4694ZM46.041 21.2011C46.1412 21.3167 46.2394 21.4335 46.3357 21.5515C45.8027 21.1836 45.7984 21.045 45.2672 20.5845C45.2348 20.5572 45.2218 20.5895 45.2106 20.58C45.0798 20.4691 44.9868 20.3386 44.8658 20.24C44.6329 20.0528 44.4156 19.9309 43.9837 19.6218C43.6499 19.3873 43.6879 19.3342 43.5668 19.255C43.4652 19.1774 42.3166 18.7001 41.6574 18.2948C41.023 17.9065 42.1663 18.3308 43.4061 19.0992C44.6613 19.8477 45.8947 21.0252 46.041 21.2011ZM48.4871 24.8803C48.4237 24.7444 48.358 24.6103 48.2901 24.4779C48.5563 24.857 48.1559 24.0355 47.7967 23.4787C47.887 23.4544 48.5529 24.6958 48.791 25.2993C48.6934 25.1557 48.5921 25.016 48.4871 24.8803ZM33.0603 15.836C33.6434 15.8493 33.5266 16.0192 33.497 16.0677C33.3136 16.0572 33.13 16.049 32.9473 16.0431C32.9846 15.9738 33.0223 15.9048 33.0603 15.836ZM37.4211 16.3906C37.2122 16.4411 35.9608 16.229 35.3647 16.1642C35.3387 16.161 35.5144 16.1218 35.0933 16.0704C34.9644 16.0445 33.6916 16.1576 34.0004 15.9243C35.1446 15.9892 36.2888 16.143 37.4194 16.3902C37.42 16.3903 37.4205 16.3904 37.4211 16.3906ZM38.6413 16.7901C38.4008 16.7506 38.1594 16.7158 37.9174 16.6856C37.8138 16.6066 37.7107 16.5283 37.6056 16.4501C37.8732 16.5046 38.1427 16.5654 38.4097 16.6312C38.4874 16.684 38.5646 16.7369 38.6413 16.7901ZM78.6345 18.6475C78.6421 18.7337 78.649 18.8198 78.6551 18.9058C78.8008 19.0438 79.7601 19.3828 79.5453 19.1527C79.2482 18.9757 78.9423 18.8058 78.6345 18.6475ZM74.8964 16.664C74.7063 16.5625 74.5136 16.4641 74.3183 16.3689C74.0533 16.4029 73.7907 16.4417 73.5309 16.4849C74.5351 16.8292 75.5208 17.3257 75.4697 16.9482C75.6939 17.0354 75.9161 17.1268 76.136 17.2225C75.8972 17.2717 75.9146 17.3188 76.4385 17.6568C76.638 17.5375 77.1802 17.8996 77.8278 18.2271C77.375 17.9519 76.9064 17.6966 76.4245 17.4624C76.438 17.4312 76.4515 17.4001 76.465 17.3689C77.5427 17.9012 76.2922 17.0352 75.4959 16.8854C75.453 16.8208 75.4096 16.7563 75.3655 16.6921C75.209 16.6809 75.0525 16.6716 74.8964 16.664ZM46.9636 81.9206C47.0763 82.0504 47.1901 82.1821 47.3118 82.3233C47.8946 82.7255 46.832 81.807 46.1982 81.0355C46.3782 81.3287 45.2759 80.2584 45.219 80.2173C45.3229 80.3565 45.4258 80.495 45.5275 80.6328C46.0225 81.0646 46.5042 81.496 46.9636 81.9206ZM50.2215 85.8188C50.0759 85.5692 50.3867 85.9455 50.7618 86.5065H49.3353C49.3353 86.5065 49.3353 86.5065 49.3354 86.5065C49.7616 85.8122 50.5311 84.8323 50.8829 84.432C51.0438 84.2436 51.3681 83.9264 51.4886 83.7839C51.554 83.6887 51.6149 83.5993 51.6738 83.5126C51.7688 83.4631 53.1214 81.9488 53.6404 81.4133C53.705 81.3749 53.7698 81.3367 53.8349 81.2983C54.0327 81.094 54.2343 80.8883 54.4394 80.6814C54.4256 80.7201 54.4118 80.7588 54.3981 80.7974C54.546 80.6249 54.6747 80.4712 54.813 80.3094C55.3978 79.723 55.0934 80.1489 55.5319 79.6964C56.0245 79.1909 55.1378 79.9309 55.1297 79.8867C54.7348 80.2689 53.797 81.2031 53.3974 81.609C53.1601 81.8519 53.3998 81.4962 52.4313 82.6145C52.1979 82.8339 51.9703 83.0522 51.7487 83.2694C51.4028 83.6922 50.997 84.2009 50.6627 84.6567C50.5758 84.7244 50.4897 84.7921 50.4044 84.86C50.3719 84.8775 49.5628 86.0595 49.6383 86.0022C49.5381 86.1227 49.4162 86.2832 49.2839 86.4731C49.2839 86.4731 49.2839 86.4731 49.2838 86.4731H50.8133C50.5255 85.9861 49.9951 85.2457 49.4816 84.6179C49.4002 84.5391 49.3177 84.4603 49.2343 84.3814C49.975 85.2397 49.4524 84.6694 49.6429 84.9457C49.7423 85.0911 50.116 85.6293 50.2215 85.8188ZM83.4537 23.1689C82.9382 22.6042 82.776 22.4299 82.6788 22.2891C82.6788 22.2891 82.6788 22.2891 82.6788 22.2891C82.5629 22.1305 82.5518 21.9949 81.919 21.2758C81.9203 21.4348 81.9177 21.5917 81.9136 21.7486C82.1331 21.9083 82.3607 22.1414 82.5655 22.376C82.5655 22.376 82.5655 22.376 82.5655 22.376C83.0492 22.9371 83.4123 23.4445 83.4547 23.1704C83.4544 23.1699 83.454 23.1694 83.4537 23.1689ZM68.8225 15.8337C69.7625 15.8277 69.2943 15.6391 70.4922 15.708C70.4928 15.7081 70.4933 15.7081 70.4939 15.7082C69.8781 15.6284 69.2569 15.5753 68.6313 15.5488C68.6958 15.6432 68.7596 15.7382 68.8225 15.8337ZM78.1679 58.3257C77.4902 59.0561 77.6554 58.9435 76.9751 59.5505C76.1438 60.6384 76.9078 59.7769 76.9859 59.8534C77.1735 59.6017 77.3588 59.3493 77.5416 59.096C78.1156 58.6086 77.6805 59.1757 77.6869 59.1824C77.6873 59.1819 77.6878 59.1815 77.6882 59.181C77.7121 59.2041 77.7011 59.2272 77.9081 59.0267C77.9972 58.7937 78.0838 58.56 78.1679 58.3257ZM75.3541 61.5866C75.5461 61.2877 75.5918 61.1119 74.9322 61.7363C74.9317 61.7368 74.9313 61.7373 74.9308 61.7377C74.9862 61.9002 74.2912 62.4384 74.0186 62.728C73.9561 62.814 73.8935 62.8998 73.8306 62.9855C74.3411 62.523 74.8503 62.0558 75.3541 61.5866ZM64.204 72.1271C64.1249 72.0387 64.6959 71.5211 63.8113 72.1516C63.6516 72.2945 63.4922 72.437 63.3333 72.579C63.2444 72.6909 63.1555 72.8025 63.0667 72.9137C60.9255 74.5112 60.5302 75.3136 63.8742 72.2276C63.8746 72.2272 63.875 72.2267 63.8755 72.2262C63.9871 72.191 64.0944 72.1598 64.204 72.1271ZM67.739 69.0028C67.7193 68.9267 67.6995 68.8504 67.6795 68.774C68.2338 68.5035 68.6849 67.874 69.6192 67.1834C69.6816 67.0954 69.7437 67.0071 69.8057 66.9187C70.1686 66.6703 73.2392 63.76 72.4901 64.2986C72.1686 64.5374 71.5883 65.1973 71.5324 65.2472C71.3443 65.4184 71.0597 65.5969 70.7508 65.8948C70.5721 66.0675 70.2439 66.4821 69.8692 66.829C69.0348 67.6003 67.3798 68.857 66.3769 69.9831C66.2838 70.0389 66.1908 70.0946 66.098 70.1504C65.2726 70.9008 65.5875 70.7031 64.7648 71.3314C64.4271 72.0429 67.8668 68.5595 67.274 69.4322C67.2745 69.4318 67.275 69.4314 67.2755 69.431C67.43 69.2887 67.5845 69.146 67.739 69.0028ZM86.4964 46.0423C86.6251 46.0322 86.913 44.8566 87.0498 45.2196C87.1093 44.8165 87.157 44.4161 87.1929 44.0191C87.1687 44.0132 87.1446 44.0072 87.1204 44.0013C87.0172 44.3694 86.9045 44.7382 86.7826 45.1077C86.7465 45.0939 86.7103 45.0801 86.6742 45.0663C86.6282 45.6571 85.5452 47.8459 85.4508 47.7046C85.4424 47.8465 85.4325 47.9887 85.4212 48.1313C84.7595 49.0928 84.3875 50.0589 83.587 51.0744C83.5692 51.1836 83.5508 51.293 83.5316 51.4024C83.4677 51.438 83.4039 51.4735 83.34 51.509C83.0768 51.9091 82.8173 52.2916 82.5455 52.6801C81.7736 54.0304 83.6225 51.6741 83.7907 51.3362C83.8142 51.2937 83.7371 51.2491 83.8853 50.9859C84.1695 50.5325 85.713 47.9926 86.0105 47.1324C86.0711 47.1548 86.1318 47.1771 86.1924 47.1994C86.3039 46.8123 86.4053 46.4264 86.4964 46.0423ZM59.5953 75.9747C59.5224 75.9999 59.4497 76.0252 59.3771 76.0505C58.465 76.8908 57.8911 77.3714 58.1806 77.2373C58.1811 77.2369 58.1815 77.2364 58.182 77.236C58.6445 76.8203 59.116 76.3998 59.5953 75.9747ZM13.6863 28.4742C13.529 28.435 13.2527 28.8949 13.12 29.5436C13.1747 29.5305 13.2294 29.5176 13.2841 29.5049C13.2881 29.1391 13.6528 28.836 14.1015 27.8361C14.0286 27.8016 13.9557 27.7671 13.8828 27.7327C13.8122 27.9823 13.7468 28.2295 13.6863 28.4742ZM60.3987 75.2894C60.699 75.0745 61.4228 74.301 60.8985 74.7511C60.4987 75.0952 60.2374 75.4054 60.3987 75.2894ZM65.0826 15.8697C65.3302 15.8515 65.5791 15.8375 65.826 15.8281C65.945 15.758 66.0652 15.6884 66.1864 15.6194C66.1858 15.6194 66.1853 15.6195 66.1847 15.6195C65.8152 15.6947 65.4473 15.7783 65.0826 15.8697ZM80.3413 55.6964C79.7777 56.4206 79.213 57.1164 78.6196 57.8193C78.6348 57.8459 78.65 57.8724 78.6652 57.899C79.1851 57.1298 79.4987 56.9237 79.6407 56.765C79.6401 56.7657 79.6395 56.7665 79.6389 56.7672C80.0874 56.2603 80.5139 55.7565 80.9371 55.272C80.7388 55.4138 80.5402 55.5552 80.3413 55.6964ZM82.3584 53.3392C82.0875 53.3211 81.9624 53.4826 81.2552 54.6852C81.3094 54.6587 81.3635 54.6321 81.4178 54.6055C81.8348 54.0252 82.0423 53.6439 82.06 53.8209C82.1608 53.6605 82.2603 53.4999 82.3584 53.3392ZM72.8481 64.0653C73.0086 63.9872 73.9342 62.9938 73.8612 63.0239C73.8349 63.0378 72.5404 64.221 72.8481 64.0653ZM18.7637 20.7051C18.5609 20.8762 18.3608 21.0538 18.1635 21.2382C18.3771 20.9487 18.5989 20.6679 18.8287 20.3956C18.8059 20.4988 18.7842 20.602 18.7637 20.7051ZM20.742 18.4595C20.9248 18.3872 20.5642 18.9609 21.5584 18.3957C20.8589 18.8462 20.1963 19.3475 19.5795 19.8937C19.8388 19.6059 20.1153 19.3221 20.4001 19.0504C20.297 19.0252 20.1933 19.001 20.0888 18.9778C20.3025 18.7994 20.5176 18.6284 20.742 18.4595ZM21.614 18.1378C21.0948 18.1733 23.2053 16.9644 23.4459 16.9323C23.4948 16.9165 23.7761 16.9674 23.8697 16.965C23.5347 17.1097 23.2053 17.264 22.8809 17.4283C23.0117 17.4193 23.142 17.4117 23.2718 17.4056C22.8984 17.6048 22.5355 17.8161 22.1817 18.04C22.3117 17.9058 22.4447 17.7733 22.5807 17.6427C22.2539 17.7973 21.9307 17.9627 21.614 18.1378ZM15.0565 25.3373C15.2286 25.0641 15.4225 24.7665 15.5905 24.5184C15.4878 24.5268 15.3852 24.5354 15.2825 24.5445C15.18 24.7043 15.0686 24.8816 14.9655 25.0494C14.9953 25.1459 15.0256 25.2419 15.0565 25.3373ZM18.8778 20.1785C18.8394 20.7506 17.3945 21.0185 18.6051 20.2362C18.7279 20.1611 18.8823 20.122 18.8778 20.1785ZM24.3056 16.6167C25.1179 16.0163 25.103 16.6614 24.2097 16.8225C24.1642 16.8307 24.2453 16.6623 24.3056 16.6167ZM31.4543 15.2126C31.5361 15.2156 31.6663 15.3812 32.4409 15.2246C32.5663 15.2478 32.6914 15.2719 32.8161 15.2969C32.5087 15.3284 30.0075 15.4744 30.3471 15.2909C30.7311 15.2611 31.0537 15.2156 31.4543 15.2126ZM28.951 14.7069C28.5651 14.7595 28.1811 14.8224 27.8001 14.8957C27.9353 14.9321 28.0697 14.9695 28.2033 15.008C28.0186 15.0543 27.8349 15.1031 27.6523 15.1544C27.3184 15.1132 26.9813 15.0788 26.6414 15.052C27.4593 14.8423 28.2941 14.6823 29.1386 14.5716C29.0757 14.6163 29.0131 14.6614 28.951 14.7069ZM19.4822 18.3043C20.1118 17.922 20.8003 17.3309 21.8672 16.7678C21.8678 16.7677 21.8684 16.7676 21.869 16.7675C21.9223 16.7399 22.0554 16.766 22.2271 16.6812C22.3383 16.5456 25.3375 15.2649 25.1582 15.53C24.0062 16.0422 23.515 16.0683 23.3658 16.48C23.2842 16.4417 23.2022 16.4039 23.1196 16.3665C21.9798 16.7651 21.7972 17.162 21.2755 17.5743C21.251 17.5283 21.2266 17.4823 21.2021 17.4362C20.8208 17.6627 20.4449 17.9057 20.0819 18.161C20.1526 18.1525 20.2228 18.1447 20.2934 18.1371C20.1659 18.227 20.0401 18.3183 19.915 18.4118C19.519 18.5134 19.1091 18.7965 19.4822 18.3043ZM30.7158 14.6398C31.0677 14.2104 34.6283 14.5607 36.2222 14.8925C35.3441 14.9091 34.0695 14.602 33.1397 14.5448C31.3519 14.4586 32.5811 14.6438 32.275 14.6867C32.1271 14.707 31.121 14.4782 30.7158 14.6398ZM17.5421 20.1536C18.1592 19.5541 18.4629 19.1537 19.1251 18.7896C19.0959 18.8517 19.067 18.9138 19.0386 18.976C18.8081 19.0913 17.2791 20.4988 17.5421 20.1536ZM38.5052 15.5633C36.8779 14.97 37.6162 15.4853 36.8018 15.0601C37.383 15.1789 37.9602 15.321 38.5318 15.4872C38.5229 15.5126 38.5141 15.538 38.5052 15.5633ZM62.3577 74.3436C62.9418 73.8524 63.6217 73.3154 63.9393 72.9669C63.5293 73.3029 63.1223 73.6364 62.7187 73.9675C62.5981 74.0933 62.4778 74.2187 62.3577 74.3436ZM47.2585 83.5763C47.3752 83.713 47.8571 84.1888 47.9052 84.2447C48.0004 84.3508 47.9622 84.3324 47.9606 84.3367C48.57 85.0247 48.0525 84.3567 48.499 84.8582C48.5767 84.9325 49.5479 86.1721 49.8811 86.6924C49.9425 86.7825 50.0023 86.8722 50.06 86.961L50.0371 86.961C50.0371 86.961 50.0371 86.961 50.0371 86.9609C50.468 86.2871 51.018 85.5949 51.1952 85.3758C51.5611 84.913 52.3056 84.0025 52.9964 83.2863C53.2849 82.9858 53.4281 82.8836 53.7122 82.5983C55.5829 80.6779 59.5829 77.2111 61.4334 75.7064C61.8879 75.3341 62.356 75.0081 62.5972 74.8031C62.7724 74.6348 62.9478 74.466 63.124 74.2963C63.8066 73.9427 63.9095 73.67 64.5314 73.132C64.9243 72.7925 65.1377 72.6814 65.1917 72.6365C65.5435 72.3432 65.7025 72.1789 65.9781 71.9438C66.2871 71.6802 66.755 71.3204 66.8629 71.2243C66.9293 71.164 66.6651 71.2961 67.8664 70.2828C69.0991 69.2413 70.298 68.2226 71.5272 67.1437C70.9579 67.3154 70.7165 67.756 70.2185 68.1992C70.0851 68.3182 70.1458 68.2151 70.0295 68.3184C69.7007 68.6111 69.0907 69.1844 68.808 69.4142C68.5018 69.6637 68.5502 69.5124 68.1903 69.8605C68.1721 69.8781 68.255 69.8525 68.1693 69.933C67.305 70.7411 66.9842 70.9347 65.8339 71.8989C65.0948 72.521 60.4804 76.3994 60.332 76.5116C59.4528 77.1226 64.2732 73.0731 64.8545 72.5992C65.053 72.4366 64.8687 72.6359 65.0522 72.4908C65.13 72.4294 65.7718 71.805 66.4506 71.2224C67.2598 70.5298 68.9374 69.1595 69.6996 68.492C76.2604 62.7118 82.7115 56.7163 87.0061 49.1311C87.0955 48.9685 87.1456 48.7261 87.4231 48.1905C92.3548 39.6764 90.9181 28.5107 84.5178 20.8797C84.5178 20.8797 84.5178 20.8797 84.5178 20.8797C83.5732 19.65 82.4757 18.5527 81.2573 17.6183C79.3276 16.1392 77.1002 15.1449 74.7578 14.4112C74.4465 14.3927 74.1358 14.3807 73.8267 14.3753C74.5997 14.4893 75.8997 15.079 76.0124 15.1328C76.055 15.1496 76.3561 15.1744 76.7909 15.3563C77.4005 15.614 77.6303 15.8053 77.6797 15.8269C77.8307 15.8991 77.7621 15.7871 77.9065 15.8573C78.9771 16.387 79.7798 16.8522 80.6686 17.492C81.6672 18.2298 82.0327 18.7536 82.7761 19.2742C82.8068 19.3873 82.8363 19.5005 82.8646 19.6138C83.1228 19.7368 83.709 20.2688 84.3264 21.0263C84.3264 21.0263 84.3264 21.0263 84.3264 21.0263C85.332 22.2517 86.2903 23.737 86.8156 24.6616C87.0777 25.1204 86.9399 25.0898 87.0265 25.2424C87.0751 25.3395 87.1979 25.2366 87.7806 26.4364C88.0827 27.0778 88.0647 27.2817 88.2095 27.5951C88.2866 27.7652 88.3625 27.6997 88.4677 27.9457C89.0524 29.3311 89.4381 30.603 89.75 32.0604C89.8374 32.481 89.7591 32.4997 89.7794 32.5928C89.8502 32.9374 90.0921 33.4999 90.19 34.3899C90.4032 35.8551 90.2867 38.7812 89.9961 39.9572C89.9603 40.1304 89.8513 40.2593 89.8304 40.3868C89.7989 40.58 89.872 40.6729 89.8661 40.7071C89.7405 41.3535 89.7373 40.9479 89.6655 41.3825C89.6246 41.6154 89.6705 41.8808 89.5392 42.4205C89.3595 43.1323 89.281 42.9582 89.2056 43.2554C89.1976 43.2869 89.2741 43.3209 89.1848 43.6106C88.8578 44.697 88.2422 46.2615 87.7681 47.2352C87.6327 47.518 87.4847 47.7046 87.284 48.0958C86.9686 48.9083 84.2777 53.1835 83.9624 53.4593C83.9346 53.4927 84.1147 53.0711 83.6999 53.6487C83.6117 53.8411 83.5215 54.0332 83.4294 54.225C83.1675 54.4627 82.9028 54.7005 82.6385 54.9346C82.8336 55.0682 81.568 56.6792 81.4055 56.5163C81.2551 56.6832 81.1037 56.8497 80.9513 57.0158C80.764 57.4691 80.5238 57.6673 79.9867 58.4007C79.8594 58.4754 79.7321 58.55 79.6049 58.6245C79.603 58.6712 79.601 58.7178 79.599 58.7644C79.1565 59.0159 78.7383 59.703 78.6717 59.7731C78.4219 60.0446 78.202 60.2184 78.0833 60.3449C77.641 60.8192 76.6936 61.858 76.1366 62.3714C76.1104 62.3955 76.0922 62.3263 75.9336 62.4723C75.6474 62.7355 75.6818 62.8269 75.2378 63.1131C75.1806 63.2052 75.123 63.2973 75.0656 63.3888C74.9764 63.4561 74.8871 63.5234 74.7978 63.5906C74.3295 64.0498 73.8567 64.5055 73.3805 64.9575C73.7508 64.4779 73.2152 64.9083 72.7883 65.4056C72.6435 65.5738 72.8258 65.4844 72.7777 65.5407C72.714 65.6238 70.5079 67.5723 70.3319 67.6748C70.2383 67.7805 70.1444 67.8859 70.0505 67.991C69.9755 68.0123 69.9006 68.0337 69.8259 68.0552C69.7757 68.115 69.7255 68.1748 69.6753 68.2345C69.0671 68.6972 67.6358 70.106 67.3545 70.3296C67.2048 70.4505 67.251 70.2387 66.5612 70.848C66.5595 70.8959 66.5583 70.9434 66.556 70.9917C66.3961 71.1345 66.2363 71.2768 66.0768 71.4187C65.7691 71.6754 65.2892 72.004 65.2496 71.985C65.1704 72.084 65.0911 72.1827 65.0118 72.2811C64.716 72.4295 63.3554 73.6169 62.8436 74.1078C62.6702 74.225 62.4976 74.342 62.3257 74.4588C62.1239 74.664 61.9225 74.8684 61.7222 75.0714C61.2257 75.5007 61.7278 75.0204 61.6187 75.1078C61.3844 75.296 60.2962 76.3119 60.3163 76.1804C60.1571 76.3158 59.9986 76.4507 59.8411 76.5852C59.7761 76.6733 59.7112 76.7612 59.6465 76.8489C59.3178 77.0194 58.8969 77.4167 57.9214 78.2295C57.8538 78.3136 57.7865 78.3975 57.7194 78.4811C57.4099 78.7175 57.1048 78.9527 56.8046 79.1866C56.7665 79.2613 56.7286 79.3358 56.6908 79.4101C56.5743 79.5203 56.4422 79.6448 56.3194 79.7615C56.0153 79.9457 55.6097 80.4149 55.3664 80.6042C55.0131 80.8804 55.226 80.6128 55.8462 80.0307C55.7645 80.0292 53.9274 81.7873 53.538 82.2006C53.5711 82.1803 53.6042 82.1601 53.6374 82.1399C54.0455 81.7233 54.4819 81.2919 54.9149 80.8735C55.3658 80.6127 54.1374 81.7233 53.6417 82.2472C53.597 82.2951 53.359 82.5885 52.825 83.1392C52.6114 83.3541 51.8318 84.1112 51.6693 84.2987C50.5028 85.6405 51.42 84.639 50.2822 85.9951C50.4874 85.7973 50.1444 86.2105 49.7647 86.7845C49.7647 86.7845 49.7647 86.7845 49.7647 86.7845H50.3325C50.2197 86.607 50.09 86.4137 49.9492 86.2194C49.8581 86.069 48.8972 84.9179 48.8319 84.8589C48.4223 84.3876 48.9127 84.874 48.2977 84.1886C48.2146 84.1158 48.1225 84.0339 48.0459 83.9701C47.911 83.8205 47.773 83.6701 47.6321 83.5189C46.853 82.5053 46.5587 82.3614 46.2415 82.0616C46.1094 81.9387 46.3004 82.0779 45.9586 81.7542C45.8288 81.6319 45.669 81.5151 45.3123 81.1794C44.2457 80.1848 43.9031 79.7079 42.8224 78.9235C42.6787 78.7706 42.5336 78.617 42.3874 78.4626C42.2647 78.386 42.1415 78.3094 42.0175 78.2327C41.2293 77.4565 41.4937 77.7804 41.1971 77.5232C40.4221 76.8501 38.8082 75.4675 38.7092 75.3032C37.9311 74.8322 37.2201 74.0233 36.951 73.8016C36.7803 73.6812 36.609 73.5606 36.437 73.4398C36.2603 73.267 36.0831 73.0934 35.9055 72.9189C35.8968 73.1088 35.0266 72.1806 34.9357 72.0988C34.8335 72.0093 33.3018 70.7703 32.7583 70.302C32.2095 69.8321 31.2746 68.9596 31.1958 68.8894C31.1002 68.8059 30.1413 68.0323 29.4177 67.3871C28.771 66.8439 25.1668 63.3782 25.3456 63.6508C25.5637 63.8956 25.8863 64.2319 26.1719 64.5157C27.0256 65.4294 32.524 70.3098 33.9719 71.5072C36.8364 73.9576 39.8895 76.4508 42.7295 78.9655C42.8953 79.1126 42.8991 79.1591 43.0399 79.2847C43.2465 79.468 43.8314 79.9494 44.0433 80.144C44.8298 80.8589 45.7817 81.7728 46.1826 82.1723C47.0827 83.0637 47.6784 83.7211 48.3238 84.4614C48.5315 84.6923 49.5617 85.8564 50.1123 86.7394C50.1394 86.7847 50.1662 86.83 50.1926 86.8751H49.9045C49.9045 86.8751 49.9045 86.8751 49.9045 86.8751C49.9804 86.7688 50.0584 86.6622 50.1386 86.5552C50.0813 86.6425 50.0071 86.7571 49.9253 86.8885C49.9253 86.8886 49.9253 86.8886 49.9253 86.8886L50.1718 86.8886C49.835 86.374 49.1513 85.5018 48.8367 85.1318C48.2136 84.3846 47.8559 83.9712 47.6247 83.7194C47.4323 83.5017 46.3103 82.3873 45.8105 81.9145C45.6524 81.762 45.6416 81.7073 45.5041 81.5758C44.754 80.8583 43.777 79.9718 43.0887 79.4074C43.3693 79.6376 41.6982 78.1442 41.5944 78.0601C41.4401 77.9272 41.2595 77.8148 40.948 77.5488C40.3467 77.0369 40.4713 77.0486 39.6568 76.4541C39.4811 76.2788 39.313 76.1098 39.1398 75.9363C39.0713 76.0046 36.7768 73.9081 36.0175 73.4417C35.9914 73.4395 39.07 76.0485 39.3112 76.2569C40.8565 77.5628 43.0673 79.4256 44.5071 80.7797C44.9109 81.1476 46.2375 82.4939 46.3116 82.5761C46.4661 82.728 46.3478 82.5696 46.4147 82.6349C47.8304 84.0472 47.0837 83.3754 47.2585 83.5763ZM20.9747 17.0708C20.4974 17.3478 20.0271 17.6511 19.5789 17.9714C19.5767 17.9006 19.5749 17.8298 19.5735 17.7588C19.7927 17.6262 20.0156 17.4977 20.2412 17.3741C20.3858 17.2359 20.533 17.1001 20.6829 16.9666C20.7808 17.0006 20.8781 17.0353 20.9747 17.0708ZM22.0633 16.1915C22.489 15.9466 22.5634 16.05 22.6669 16.0069C22.9779 15.8821 23.2241 15.7224 23.5279 15.6009C23.282 16.0022 22.5233 16.2054 22.0633 16.1915ZM14.6154 22.9466C14.6916 22.8592 15.3639 22.4282 15.6597 21.5433C15.7723 21.4298 15.8861 21.3163 16.0011 21.2029C16.0011 21.2029 16.0011 21.2029 16.0011 21.2029C16.3501 20.8645 16.7059 20.5489 17.0706 20.2509C16.7392 20.5296 16.4095 20.908 16.1235 21.2967C16.1235 21.2967 16.1235 21.2967 16.1235 21.2967C15.6862 21.8874 15.3484 22.448 15.1673 22.7018C15.0502 22.866 14.9488 22.8427 14.8568 22.9742C14.3345 23.7215 14.0498 24.6133 13.7241 24.5361C14.2819 23.7894 14.5138 23.0672 14.6154 22.9466ZM18.2891 18.7593C18.4417 18.7133 18.5939 18.6699 18.7457 18.6291C18.3529 18.9607 17.9676 19.317 17.6076 19.6815C17.6576 19.5344 17.7097 19.3877 17.764 19.2413C17.9349 19.0778 18.1115 18.9157 18.2891 18.7593ZM18.0524 55.881C17.8383 55.6157 17.6272 55.3495 17.4192 55.0825C17.4037 55.1185 17.6438 55.4232 17.7159 55.5495C17.7155 55.549 17.7152 55.5485 17.7148 55.548C17.7947 55.689 17.7179 55.6633 17.8866 55.9018C17.9419 55.8949 17.9972 55.888 18.0524 55.881ZM73.4751 14.0934C72.9509 13.8107 67.7494 13.4972 68.1988 13.7562C68.4227 13.8136 70.1867 13.7841 70.7053 13.8504C71.4132 13.8892 73.2321 14.3886 73.4751 14.0934ZM64.3166 13.9887C64.2527 14.0978 67.4687 13.7196 67.7878 13.7388C67.7195 13.7193 67.613 13.6749 67.5225 13.6685C67.0801 13.6152 65.0106 13.8695 64.3166 13.9887ZM31.5231 69.5884C31.3436 69.3814 31.1662 69.1746 30.9913 68.9682C31.0095 69.0554 31.0279 69.1424 31.0465 69.2292C31.2033 69.3473 31.3641 69.4687 31.5231 69.5884ZM50.2472 86.37C52.9285 82.6995 56.4207 79.8213 59.8114 76.8951C59.5197 77.1654 59.2312 77.4335 58.9462 77.6996C56.0431 80.1988 52.8679 82.9429 50.6174 85.947C50.4903 86.0884 50.3668 86.2294 50.2472 86.37ZM13.5145 23.6732C12.8921 24.6713 12.5229 25.4972 11.8637 26.538C12.2666 25.4241 12.7063 25.0482 13.1419 23.9446C13.1422 23.9441 13.1426 23.9435 13.1429 23.9429C13.266 23.8525 13.3898 23.7626 13.5145 23.6732ZM12.2081 47.5832C11.9968 47.3023 11.7892 47.0189 11.5855 46.7328C11.7573 47.1105 11.9374 47.4865 12.1254 47.8608C12.1524 47.768 12.18 47.6755 12.2081 47.5832ZM79.1114 60.032C79.8676 59.0972 82.064 56.9415 82.5598 56.0822C82.591 56.0273 82.1817 56.4348 82.6742 55.6357C82.2539 56.1981 81.9499 56.5961 81.9871 56.6968C81.8275 56.8373 81.6673 56.9774 81.5066 57.1172C81.2954 57.4002 81.0881 57.674 80.8749 57.95C80.8322 57.8618 80.8198 57.8863 80.5092 58.3253C80.3298 58.4916 80.1496 58.6575 79.9687 58.8229C79.9263 58.9246 79.8834 59.0261 79.84 59.1275C79.6585 59.2479 79.4759 59.3693 79.2953 59.4881C78.7752 60.1237 79.187 59.8272 79.1114 60.032ZM76.1314 62.9922C76.3117 62.8956 80.1553 58.8754 78.2752 60.57C77.8238 61.0453 77.3635 61.5187 76.9037 61.9826C77.4766 61.7906 76.0358 62.8753 75.9252 62.9722C75.4024 63.4442 74.7927 64.1028 74.4165 64.448C74.0935 64.7451 73.8726 64.8898 73.6464 65.0997C72.877 65.8159 71.6375 66.9247 71.5272 67.1437C72.1407 66.6051 72.7619 66.0513 73.3898 65.4766C74.0504 64.8673 74.7046 64.409 75.8324 63.1417C76.1436 62.8626 76.092 63.024 76.1314 62.9922ZM11.1842 45.7699C11.3258 45.7501 10.563 43.8035 10.5161 43.8051C10.4779 43.8143 10.6992 44.4583 10.7217 44.5547C10.7219 44.5553 10.7222 44.5559 10.7224 44.5565C10.7307 44.597 10.6022 44.4231 10.6971 44.7319C10.8525 45.0801 11.015 45.4261 11.1842 45.7699ZM81.0211 16.9569C80.9437 16.8314 79.5627 15.8228 78.0259 15.1246C76.5007 14.4006 74.869 13.9848 74.7727 13.9845C74.7191 13.9837 74.7774 14.0453 74.751 14.0644C76.2573 14.307 78.2001 15.2993 79.4096 16.0414C79.7516 16.2453 79.6855 16.1227 79.706 16.1327C79.7068 16.1332 79.7077 16.1337 79.7085 16.1341C79.9077 16.2448 80.6593 16.9533 81.0211 16.9569ZM83.8129 54.4004C83.6277 54.6094 83.4408 54.8177 83.2521 55.0252C83.2405 55.1065 83.2285 55.1877 83.2162 55.269C83.2166 55.2685 83.217 55.268 83.2174 55.2675C83.4198 54.9794 83.6183 54.6904 83.8129 54.4004ZM88.8876 46.2425C88.8291 46.2921 88.7716 46.339 88.7136 46.3869C88.4302 47.0192 88.1234 47.6466 87.795 48.2692C87.8113 48.1977 87.8272 48.1262 87.8428 48.0547C87.3125 48.977 87.1973 49.3962 86.8988 49.8791C86.8991 49.8786 86.8995 49.878 86.8998 49.8774C86.8674 49.9289 86.7735 49.9585 86.6561 50.1515C86.3889 50.6042 85.5765 51.8241 85.5239 52.0082C85.4403 52.4099 87.0007 49.8594 87.2511 49.3627C87.3769 49.1461 87.5732 48.911 87.6466 48.7778C87.7257 48.6337 87.7656 48.3904 87.9536 48.0269C88.0136 47.922 88.6814 46.7736 88.8876 46.2425ZM90.7844 34.1997C90.7229 34.4246 90.846 34.8647 90.8424 35.0307C90.8418 35.0699 90.7478 34.7707 90.7523 35.1411C90.8085 35.2422 90.8639 35.3439 90.9184 35.4462C90.8861 35.0318 90.8416 34.6163 90.7844 34.1997ZM9.96697 42.4418C9.95979 42.5059 10.2881 43.5938 10.321 43.6414C10.6535 44.2458 9.96821 42.0077 9.96697 42.4418ZM18.8552 16.7952C18.5708 16.8579 19.714 15.9745 21.1296 15.2736C22.5344 14.5515 24.1822 14.0649 24.4689 13.9747C24.4803 14.1136 23.0429 14.4666 23.8379 14.3987C23.0959 14.5114 21.2661 15.4238 20.8462 15.6506C20.5826 15.7745 20.4534 15.7 20.4127 15.7184C20.2449 15.78 19.0416 16.745 18.8552 16.7952ZM29.5273 13.1262C28.9371 13.1414 28.3462 13.1787 27.7567 13.2391C28.4453 13.1202 29.1399 13.0339 29.8382 12.9794C29.7339 13.0275 29.6303 13.0764 29.5273 13.1262ZM30.2659 13.0227C30.2416 12.8714 32.2579 12.97 32.7855 13.0014C32.1784 13.179 31.1975 12.9364 30.2659 13.0227ZM8.86303 34.984C8.7163 35.9146 9.13183 36.3212 8.99802 35.1925C8.99375 35.1583 8.87048 34.9457 8.86303 34.984ZM79.5978 60.1014C79.7091 59.9958 81.1343 58.6131 81.1694 58.495C81.2987 58.1272 80.4751 59.1228 80.1333 59.4C79.587 59.8458 80.2389 59.0579 79.1062 60.3206C79.1336 60.2506 79.1608 60.1805 79.1878 60.1104C78.4926 60.8194 78.8583 60.7224 78.752 60.8682C78.7195 60.9129 78.2681 61.3444 78.1966 61.4325C77.309 62.5375 79.5082 60.2133 79.5978 60.1014ZM17.0335 55.9252C18.1396 57.3996 17.7363 56.7175 18.9768 58.1403C19.0637 58.1554 17.2193 56.0774 17.0335 55.9252ZM66.1779 72.0448C67.6396 70.813 68.8865 69.8551 70.1794 68.6407C70.0176 68.626 65.7901 72.342 66.1779 72.0448ZM60.0171 14.237C67.0462 11.6462 76.7515 12.2054 82.8438 17.7136C83.4975 18.3033 83.4644 18.4464 83.6965 18.66C83.8458 18.8023 83.8851 18.7142 84.075 18.9153C84.4963 19.3653 84.8839 19.8215 85.2608 20.3102C85.2608 20.3102 85.2608 20.3102 85.2608 20.3102C91.0957 27.4131 93.3123 37.4566 89.5295 45.6919C89.3258 46.2705 87.921 48.7978 87.7888 49.4263C87.7129 49.9235 88.607 48.0273 88.747 47.7064C88.8637 47.472 88.9434 47.4978 89.0195 47.3405C89.0996 47.1734 88.9823 47.2874 89.0731 47.093C89.4536 46.2767 89.8634 45.345 90.1363 44.5709C93.0863 36.8971 91.2506 28.1746 86.557 21.6869C85.9978 20.8867 86.1718 21.002 86.1455 20.9617C86.1449 20.9613 86.1444 20.9609 86.1438 20.9605C85.9423 20.6817 85.7322 20.4003 85.5135 20.1166C85.5135 20.1166 85.5135 20.1166 85.5135 20.1165C82.4519 16.0049 77.0562 13.313 71.8944 12.7077C68.0043 12.1902 63.9868 12.657 60.3157 14.0663C60.2156 14.1226 60.116 14.1796 60.0171 14.237ZM76.5877 62.8589C77.0575 62.6517 77.0127 62.4594 78.2889 61.2919C78.3655 61.17 78.4416 61.0478 78.517 60.9254C77.8813 61.5813 77.2377 62.2252 76.5856 62.8609C76.5863 62.8603 76.587 62.8596 76.5877 62.8589ZM84.3041 54.4866C84.7421 54.4532 86.8425 51.1891 87.728 49.6643C87.758 49.3089 86.5083 51.5343 86.1465 52.0016C85.9768 52.2461 84.9371 53.4773 84.2698 54.4812C84.2812 54.483 84.2927 54.4848 84.3041 54.4866ZM13.8286 21.1292C13.6709 21.3702 13.5176 21.6105 13.3686 21.8503C13.7945 21.3068 14.2442 20.7634 14.718 20.2195C14.718 20.2195 14.718 20.2195 14.718 20.2195C14.7293 20.2066 14.7406 20.1937 14.7519 20.1808C14.7411 20.1941 14.7304 20.2074 14.7196 20.2207C14.7196 20.2207 14.7196 20.2207 14.7196 20.2207C13.9913 21.1225 13.3281 22.0205 12.7273 22.9152C12.7631 22.6966 12.8019 22.4766 12.8437 22.255C13.1604 21.8788 13.4887 21.5036 13.8286 21.1292ZM11.8757 24.2546C12.8698 22.4972 11.9855 24.4323 11.677 24.81C11.4827 25.0393 11.7755 24.4343 11.8757 24.2546ZM9.59743 28.9134C9.74695 27.9594 10.4981 26.2346 10.504 26.9697C9.97853 27.845 9.84316 28.4639 9.32867 29.8632C9.33609 29.6412 9.3468 29.4174 9.3609 29.1918C9.36121 29.1908 9.36153 29.1898 9.36185 29.1889C9.43967 29.0966 9.5182 29.0047 9.59743 28.9134ZM12.1852 23.3639C13.0057 22.3105 11.0356 25.5878 11.5327 24.4934C11.5483 24.4426 12.1454 23.4062 12.1852 23.3639ZM68.1477 12.1878C67.9915 12.2789 69.0071 12.2427 69.3461 12.2575C70.8108 12.2842 72.6971 12.4432 74.1905 12.7978C74.0848 12.7428 73.9784 12.6886 73.8713 12.6354C71.9864 12.2478 70.0594 12.105 68.1477 12.1878ZM78.7259 14.3557C79.6797 14.8128 80.5984 15.346 81.4701 15.9547C81.5509 16.0096 81.9772 16.2134 81.7088 15.9946C80.7607 15.36 79.7597 14.8128 78.7259 14.3557ZM72.0431 67.411C72.6542 66.9244 71.0394 68.4908 71.0163 68.3128C71.3611 68.0123 71.7027 67.7124 72.0431 67.411ZM66.5061 72.1088C66.8795 71.7881 67.2512 71.4675 67.6176 71.1496C67.628 71.1609 67.6383 71.1723 67.6486 71.1836C67.2715 71.4898 66.8895 71.7991 66.5061 72.1088ZM64.0481 12.6619C64.5885 12.6377 65.8393 12.4065 66.6327 12.3319C66.0774 12.2944 64.7889 12.5349 64.0481 12.6619ZM80.6222 59.4201C80.5527 59.4389 82.6527 57.1362 82.0006 58.002C81.5487 58.4787 81.0889 58.9514 80.6222 59.4201ZM84.8353 54.651C84.4332 55.1917 84.0849 55.5871 84.1015 55.4228C84.329 55.1453 84.5532 54.8666 84.774 54.5865C84.7945 54.608 84.8149 54.6295 84.8353 54.651ZM8.45948 32.3326C8.26378 33.4757 8.15399 34.6458 8.13718 35.8073C8.10557 35.7633 8.07406 35.7192 8.04264 35.6748C8.06458 34.5479 8.17301 33.4182 8.36192 32.3103C8.39443 32.3177 8.42696 32.3252 8.45948 32.3326ZM63.352 12.5606C62.577 12.7749 61.8109 13.0274 61.0646 13.3158C61.823 13.0613 62.5985 12.8456 63.3794 12.6705C63.3709 12.6336 63.3624 12.5966 63.3539 12.5597C63.3533 12.56 63.3526 12.5603 63.352 12.5606ZM15.2985 18.0353C12.7352 20.7121 15.6805 16.973 16.679 16.5933C16.6796 16.5925 16.6803 16.5916 16.681 16.5908C16.7596 16.5516 16.6898 16.7461 16.8242 16.6857C16.5104 16.892 16.1977 17.1117 15.8938 17.3381C15.6874 17.6157 15.4881 17.8989 15.2962 18.1877C15.2024 18.2542 15.109 18.3218 15.0158 18.3905C15.1089 18.2708 15.2031 18.1524 15.2985 18.0353ZM28.3583 11.761C31.637 11.5742 28.3052 11.9226 26.6782 12.0587C26.6798 12.0042 28.0547 11.7773 28.3583 11.761ZM20.1137 14.3042C19.6617 14.5763 19.2243 14.8638 18.7965 15.1702C18.7242 15.1826 18.6518 15.1953 18.5793 15.2086C18.9009 14.9597 19.2295 14.7212 19.5647 14.4933C19.7475 14.4273 19.9306 14.3643 20.1137 14.3042ZM9.04348 27.0651C8.71892 27.8298 8.60479 28.9207 9.53548 26.424C9.50331 26.4112 9.47113 26.3984 9.43894 26.3856C9.40021 26.4869 9.3072 26.7896 9.29866 26.8043C9.27217 26.8463 9.18664 26.7473 9.04348 27.0651ZM34.5153 11.1484C34.6091 11.155 34.7119 10.8418 35.6418 11.3593C35.9403 11.4026 36.2377 11.4516 36.5338 11.5061C36.5958 11.5904 36.6572 11.6748 36.7179 11.759C35.6028 11.4274 35.4522 11.5597 35.3711 11.542C34.9911 11.4816 35.2821 11.4651 35.0378 11.4182C34.4101 11.2874 32.9513 11.1636 33.63 11.0372C33.8764 10.9918 34.4199 11.143 34.5153 11.1484ZM32.2514 10.6967C32.3926 10.7337 31.9301 10.7968 32.0369 10.8313C32.1328 10.8514 33.5288 11.0829 33.1366 11.2042C32.909 11.1735 32.6807 11.1459 32.4517 11.1214C32.3763 11.0716 32.3003 11.0221 32.2239 10.9727C31.9991 10.9977 31.7752 11.026 31.5518 11.0577C31.1804 10.9321 30.3663 10.7729 31.3286 10.7082C30.9748 10.7047 30.6206 10.7089 30.267 10.7208C30.0854 10.7752 29.9048 10.832 29.7254 10.8912C29.8164 10.8067 29.9084 10.723 30.0013 10.6401C30.7528 10.6249 31.5049 10.6441 32.2514 10.6967ZM42.608 13.8564C42.5557 13.8645 42.5034 13.8729 42.4512 13.8817C43.6118 14.4394 45.2334 15.6409 44.2038 15.1313C42.7767 14.1472 41.2304 13.35 39.6197 12.7314C39.5219 12.6637 39.4234 12.5964 39.3243 12.5295C40.4908 13.1044 40.2741 12.5423 41.2584 13.1425C41.4197 13.2492 40.8715 13.126 41.9721 13.5902C41.9491 13.5395 41.9253 13.4884 41.9024 13.4377C42.1403 13.5732 42.3761 13.713 42.608 13.8564ZM50.1021 21.8408C49.1535 19.8346 50.3307 21.978 50.3889 22.4036C50.3886 22.4029 50.3884 22.4023 50.3881 22.4016C50.6414 23.5102 49.8182 21.2581 49.707 21.1442C49.6116 20.9704 49.3011 20.6489 48.888 19.6362C49.3526 20.3378 49.7604 21.075 50.1021 21.8408ZM45.7779 16.0992C45.9224 16.2169 45.8167 16.1845 45.8778 16.2369C45.8783 16.2373 45.8788 16.2378 45.8793 16.2382C46.8252 16.9617 48.655 19.1368 48.6883 19.4928C48.2762 18.6923 45.4855 15.961 45.296 15.7993C45.4572 15.8957 45.619 15.9965 45.7779 16.0992ZM38.5294 12.1501C37.8775 11.8038 39.4244 12.318 39.8007 12.5443C39.8703 12.5848 39.1999 12.5036 38.5294 12.1501ZM8.27005 45.5094C8.94154 46.95 8.22139 44.9982 8.60264 45.6234C8.48072 45.3483 8.36288 45.0713 8.24927 44.7926C8.2525 45.0309 8.25944 45.2699 8.27005 45.5094ZM56.3402 81.505C56.5939 81.2862 56.4573 81.3716 56.4787 81.352C56.6443 81.2059 56.8176 81.0833 56.8808 81.025C58.0628 79.9383 57.2408 80.621 57.2237 80.6284C57.1799 80.6305 57.4781 80.3284 57.0149 80.6906C56.7541 80.9313 56.4983 81.1701 56.2478 81.4071C56.1103 81.5103 55.9741 81.6133 55.8392 81.7159C55.3599 82.1964 56.0204 81.6045 56.1251 81.5688C56.1653 81.5553 55.703 81.9968 56.3402 81.505ZM9.23178 48.1872C9.45674 48.3652 9.88001 48.849 9.70618 48.2557C9.70587 48.2551 9.70555 48.2545 9.70524 48.2539C9.67275 48.1445 9.47832 47.7299 9.44608 47.5906C8.87034 46.7512 8.86475 47.1646 9.23178 48.1872ZM52.065 85.9423C51.7375 86.323 51.3588 86.8024 51.0659 87.215C51.049 87.1927 51.0321 87.1705 51.0153 87.1482C51.1794 86.9214 51.3552 86.6913 51.5422 86.4582C51.5961 86.3676 51.6515 86.2764 51.7084 86.1847C51.4493 86.4643 51.2065 86.7402 50.9808 87.0124C50.893 87.1458 50.809 87.278 50.7289 87.409C50.7289 87.409 50.7289 87.409 50.7289 87.409L50.0486 88.4596L49.3682 87.409C49.2243 87.1989 49.07 86.9859 48.9059 86.7703C49.0115 86.9402 49.1114 87.1081 49.2054 87.2738C48.6113 86.4432 48.7627 86.5536 48.2451 85.8604C48.0392 85.6466 47.8242 85.431 47.6003 85.2135C47.3136 84.8494 47.0436 84.5201 46.7562 84.1824C46.2277 83.6502 46.1595 83.6142 46.4975 83.9996C46.217 83.7577 45.9388 83.4056 45.6241 83.1189C45.5972 83.0944 45.6244 83.1643 45.6011 83.1422C43.8982 81.5474 44.0214 81.5931 43.7535 81.338C43.564 81.1625 42.7171 80.4999 42.6875 80.5028C42.6623 80.5224 44.2572 82.0155 41.6427 79.7951C42.9441 80.9706 44.5054 82.2875 43.6055 81.3408C44.011 81.6953 45.8507 83.3899 45.9338 83.4975C46.0976 83.6671 46.0127 83.6359 46.2172 83.8436C46.3394 83.9745 46.7158 84.2017 47.5521 85.2554C47.6763 85.3754 47.7977 85.4947 47.9165 85.6134C48.0087 85.7407 48.0982 85.867 48.185 85.9924C47.9556 85.775 47.7159 85.5559 47.4664 85.3349C48.2395 86.1508 48.7814 86.9811 49.1764 87.5332L50.0486 88.8799L50.9207 87.5332C50.9207 87.5332 50.9207 87.5332 50.9207 87.5332C50.9668 87.4538 51.011 87.3759 51.0526 87.2994C51.4194 86.7755 51.6432 86.5111 51.4946 86.7664C51.6144 86.6046 51.7404 86.4402 51.8706 86.2758C51.9333 86.1655 51.9982 86.0543 52.065 85.9423ZM11.7171 52.0636C12.039 52.7259 12.3812 52.8149 12.3256 52.7159C12.0202 52.1578 11.5505 51.7141 11.7171 52.0636ZM55.3828 82.3086C54.7935 82.8239 54.2731 83.2917 53.7006 83.8423C53.7212 83.8622 53.7418 83.882 53.7624 83.9019C54.3136 83.333 54.8137 82.8451 55.3828 82.3086ZM8.01782 45.3534C8.04538 45.2616 8.07352 45.1701 8.10225 45.0789C7.5669 44.2928 7.58945 43.3136 7.40355 42.8965C7.36223 42.8048 7.31318 43.0246 7.34626 43.2126C7.34941 43.3339 7.92537 45.2204 8.01782 45.3534ZM21.3499 12.0476C21.035 12.2266 20.7247 12.4137 20.4194 12.6086C20.4036 12.5311 20.388 12.4536 20.3726 12.3761C20.529 12.2872 20.6864 12.2003 20.8448 12.1154C21.0136 12.0907 21.1819 12.0681 21.3499 12.0476ZM17.7787 14.0767C17.2357 14.4285 16.711 14.8041 16.1997 15.2082C18.1312 13.6552 16.4729 14.8367 17.652 13.8893C17.6943 13.9517 17.7365 14.0142 17.7787 14.0767ZM12.8486 18.3966C12.8617 18.3042 12.8754 18.2118 12.8898 18.1194C13.3038 17.6076 13.7365 17.1209 14.1991 16.6477C13.7918 16.8311 13.382 17.0351 12.984 17.245C12.8232 17.4296 12.665 17.6177 12.5095 17.8093C12.6207 18.0065 12.7338 18.2023 12.8486 18.3966ZM68.185 72.1408C68.4522 71.9354 69.3443 71.1559 69.2892 71.1683C68.8829 71.4516 68.4785 71.7334 68.0762 72.0138C68.1005 72.0463 68.1247 72.0788 68.149 72.1113C68.0816 72.1383 68.0142 72.1654 67.947 72.1925C67.7399 72.3736 67.525 72.5606 67.3134 72.7443C67.1796 72.8048 67.0462 72.8654 66.9132 72.926C66.8266 73.0435 66.7399 73.1605 66.6531 73.277C67.7625 72.5022 67.6886 72.4707 67.9065 72.3015C68.0182 72.2148 68.1049 72.1789 68.1526 72.1577C68.1634 72.1521 68.1742 72.1464 68.185 72.1408ZM55.1259 82.804C56.313 81.7042 56.9107 81.0881 57.8432 80.3787C57.152 80.7407 53.7243 84.0176 52.6145 85.2084C52.5152 85.353 52.4189 85.4964 52.3259 85.6386C52.9002 84.9368 53.3544 84.5298 53.6626 84.219C53.9099 83.9719 53.8701 83.9818 53.8888 83.9629C53.8897 83.962 53.8906 83.9611 53.8915 83.9602C54.498 83.3623 54.6688 83.2335 55.1259 82.804ZM7.28634 44.2133C7.34897 44.7003 7.6607 45.4752 7.79417 45.4357C7.66268 44.9948 7.54036 44.546 7.4295 44.093C7.42617 44.194 7.27539 44.131 7.28634 44.2133ZM12.0348 18.713C11.7624 18.9837 11.2906 19.7255 11.6244 19.4993C11.6815 19.4586 12.1226 18.692 12.0212 19.2572C12.5265 18.5678 12.1901 18.5591 12.0348 18.713ZM34.1275 73.7362C33.904 73.5645 33.6797 73.3921 33.4545 73.219C33.385 73.1993 33.3153 73.1796 33.2455 73.16C33.5412 73.3526 33.8352 73.5447 34.1275 73.7362ZM6.15467 40.2806C6.36278 39.8202 5.96838 39.1335 6.1282 38.315C6.10114 38.0208 6.07937 37.7255 6.06304 37.4289C6.06299 37.4282 6.06295 37.4274 6.0629 37.4267C5.98236 37.4216 5.9018 37.4165 5.82123 37.4113C5.87654 38.3807 5.98862 39.3328 6.15467 40.2806ZM47.3564 85.1548C47.251 85.0181 47.1374 84.8748 47.0393 84.7505C46.8307 84.5459 46.615 84.3396 46.3924 84.1316C46.4996 84.2567 46.6047 84.3811 46.7077 84.5048C46.9264 84.7178 47.1302 84.9198 47.3564 85.1548ZM5.74907 35.0523C5.68702 36.1031 5.94611 36.493 5.96833 35.1667C5.9886 34.6073 5.84054 33.9509 5.74907 35.0523ZM81.5937 60.6185C81.3543 60.8353 81.1115 61.0533 80.8728 61.2646C80.8214 61.3656 80.7695 61.4665 80.7172 61.5671C81.0103 61.2555 81.3029 60.939 81.5937 60.6185ZM15.5597 15.0102C15.564 15.0825 15.5686 15.1547 15.5736 15.2268C15.3152 15.4297 15.0603 15.6398 14.8093 15.8571C14.8307 15.758 14.8528 15.659 14.8757 15.5599C15.1009 15.371 15.3289 15.1878 15.5597 15.0102ZM80.0281 62.1052C79.8373 62.2764 79.6459 62.4469 79.4538 62.6167C79.3401 62.746 79.2259 62.875 79.1112 63.0036C79.2995 62.8531 79.4874 62.702 79.675 62.5505C79.7934 62.4025 79.9112 62.2541 80.0281 62.1052ZM8.01984 25.4932C7.78623 25.834 7.40778 27.3709 7.9863 26.0839C8.37244 25.2659 8.05576 25.4421 8.01984 25.4932ZM8.87668 23.551C8.10818 24.7919 9.14172 24.1332 9.64467 22.3742C8.8172 23.9646 8.93213 23.4784 8.87668 23.551ZM17.4113 13.093C17.4459 13.0717 17.5266 13.1325 17.8029 12.9656C18.7937 12.3573 20.1853 11.7231 20.9472 11.4236C22.7238 10.46 28.6006 9.36322 29.2986 9.76113C29.4438 9.80996 29.13 9.9824 29.1883 9.98877C29.3576 9.99958 30.3193 9.91025 30.1453 10.0309C29.2012 10.0332 28.2539 10.0886 27.3084 10.2C27.5278 10.088 27.7499 9.97953 27.9744 9.87476C25.6022 10.181 26.3886 10.1193 25.7483 10.4065C25.3359 10.4087 24.9208 10.4211 24.5034 10.4445C23.6556 10.7222 22.8228 11.0498 22.0129 11.4268C22.1824 11.3048 22.354 11.1851 22.5276 11.0678C21.2149 11.4175 21.5907 11.3652 20.9612 11.7677C20.9368 11.7165 20.9124 11.6653 20.8879 11.614C19.739 12.262 19.4482 12.2535 19.1863 12.3809C18.6514 12.6796 18.3466 13.5283 16.1272 14.3346C15.5759 15.1821 15.1716 14.6632 14.9634 15.2935C13.4913 16.1335 15.8887 14.075 17.1638 13.3213C17.1644 13.3209 17.1651 13.3205 17.1657 13.3201C17.2599 13.2596 17.0757 13.3044 17.4113 13.093ZM11.6543 19.0891C11.9286 18.162 9.85154 21.1011 10.8876 20.3692C10.9962 20.2328 11.1062 20.0967 11.2176 19.9607C11.3582 19.6704 11.5041 19.3793 11.6556 19.0873C11.6552 19.0879 11.6547 19.0885 11.6543 19.0891ZM10.3975 51.285C12.2816 53.9403 11.3624 52.3408 10.6469 51.488C10.5052 51.3171 10.4097 51.2334 10.3975 51.285ZM56.8498 81.3423C56.8747 81.3049 56.8997 81.2674 56.9248 81.2299C56.1828 81.8788 54.7318 83.1777 54.8181 83.2092C55.4699 82.5803 56.1663 81.9442 56.8498 81.3423ZM51.5006 86.9487C51.6175 86.7855 52.1613 86.1136 52.0715 86.1854C51.8383 86.442 51.5772 86.7506 51.3571 87.0258C51.27 87.1688 51.1872 87.3102 51.1089 87.4498C51.2342 87.267 51.4661 86.9929 51.5006 86.9487Z" fill="#FF4488"/>
</svg>
