<svg width="100" height="100" viewBox="0 0 100 100" fill="none" xmlns="http://www.w3.org/2000/svg">
<path d="M37.8516 77.1787C38.4038 77.1787 38.8516 77.6264 38.8516 78.1787V83.3926C38.8516 85.3838 37.2364 87 35.2451 87H32.6387C30.6442 86.9999 29.0322 85.3831 29.0322 83.3926V78.1787C29.0322 77.6265 29.48 77.1788 30.0322 77.1787H37.8516ZM69.1289 77.1787C69.6812 77.1787 70.1289 77.6264 70.1289 78.1787V83.3926C70.1289 85.3838 68.5138 87 66.5225 87H63.916C61.9216 86.9998 60.3096 85.383 60.3096 83.3926V78.1787C60.3096 77.6265 60.7574 77.1789 61.3096 77.1787H69.1289ZM74.3418 69.1953C74.894 69.1953 75.3417 69.6431 75.3418 70.1953V72.8027C75.3417 74.7939 73.7266 76.4102 71.7354 76.4102H27.4258C25.4313 76.4101 23.8194 74.7932 23.8193 72.8027V70.1953C23.8194 69.6431 24.2671 69.1953 24.8193 69.1953H74.3418ZM73.3418 15.6074C73.3418 14.7184 72.6222 14 71.7354 14H27.4258C26.537 14 25.8193 14.7177 25.8193 15.6074V38.0713H26.4258V31.25C26.4258 27.8197 29.2087 25.0362 32.6387 25.0361H66.5225C69.9525 25.0361 72.7354 27.8197 72.7354 31.25V31.2607L72.666 38.0713H73.3418V15.6074ZM32.6387 60.9287C31.7518 60.9288 31.0322 61.6471 31.0322 62.5361C31.0325 63.4237 31.7507 64.1425 32.6387 64.1426H35.2451C36.1312 64.1426 36.8513 63.423 36.8516 62.5361C36.8516 61.6471 36.132 60.9287 35.2451 60.9287H32.6387ZM63.916 60.9287C63.0273 60.9289 62.3096 61.6465 62.3096 62.5361C62.3098 63.4236 63.0281 64.1424 63.916 64.1426H66.5225C67.4086 64.1426 68.1287 63.423 68.1289 62.5361C68.1289 61.6471 67.4094 60.9287 66.5225 60.9287H63.916ZM41.458 64.1426H57.7031V63.5361H41.458V64.1426ZM41.458 58.9287H57.7031V58.3213H41.458V58.9287ZM41.458 53.7139H57.7031V53.1074H41.458V53.7139ZM35.2451 32.25C34.3563 32.2501 33.6387 32.9678 33.6387 33.8574V45.8926H65.5225V33.8574C65.5225 32.9677 64.8049 32.25 63.916 32.25H35.2451ZM75.3418 38.0713H75.7871V33.8574C75.7871 33.3051 76.2348 32.8574 76.7871 32.8574H79.3936C81.3841 32.8574 82.9998 34.4696 83 36.4639V39.0713C83 41.0625 81.3848 42.6787 79.3936 42.6787H72.6182L72.5996 44.4141C74.1778 45.5379 75.1788 47.3899 75.1807 49.4941L75.29 67.582C75.2917 67.8483 75.1867 68.1041 74.999 68.293C74.8113 68.4818 74.5563 68.5879 74.29 68.5879H24.8193C24.2671 68.5879 23.8193 68.1402 23.8193 67.5879V49.5C23.8193 47.4118 24.8588 45.5892 26.4258 44.4678V42.6787H19.6064C17.6119 42.6787 16 41.0618 16 39.0713V36.4639C16.0002 34.4703 17.6127 32.8574 19.6064 32.8574H22.2129C22.7652 32.8574 23.2129 33.3051 23.2129 33.8574V38.0713H23.8193V15.6074C23.8193 13.6137 25.4319 12 27.4258 12H71.7354C73.726 12 75.3418 13.613 75.3418 15.6074V38.0713Z" stroke="white" stroke-width="2" stroke-linejoin="round"/>
</svg>
