<svg width="100" height="100" viewBox="0 0 100 100" fill="none" xmlns="http://www.w3.org/2000/svg">
<path d="M21.2374 64.0293C21.2374 60.6406 23.9938 57.8842 27.3825 57.8842C30.7702 57.8842 33.5263 60.6406 33.5263 64.0293M21.2374 64.0293C21.2374 67.418 23.994 70.1742 27.3825 70.1742C30.7702 70.1742 33.5263 67.418 33.5263 64.0293M21.2374 64.0293H9.98171C8.89234 64.0293 8 63.1501 8 62.0607V41.4166C8 40.9573 8.17046 40.5109 8.45954 40.1566L21.3339 24.7096C21.7146 24.2637 22.2661 24.0008 22.8565 24.0008H40.8366C41.926 24.0008 42.8052 24.8804 42.8052 25.9694V51.4961C42.8052 52.5854 43.6975 53.4778 44.7869 53.4778H90.0257C91.115 53.4778 91.9943 54.357 91.9944 55.4464V62.0607C91.9944 63.1501 91.1152 64.0293 90.0258 64.0293H80.6285M33.5263 64.0293H68.3404M68.3404 64.0293C68.3404 60.6406 71.0966 57.8842 74.4844 57.8842C77.8721 57.8842 80.6287 60.6406 80.6285 64.0293M68.3404 64.0293C68.3404 67.418 71.0966 70.1742 74.4844 70.1742C77.8721 70.1742 80.6285 67.418 80.6285 64.0293M15.2183 42.9916V41.6266C15.2183 41.1539 15.3759 40.7076 15.6645 40.3403L23.8934 30.2218C24.2737 29.7491 24.8514 29.4736 25.4682 29.4736H33.5263C34.6419 29.4736 35.5607 30.3791 35.5607 31.508V42.9916C35.5607 44.1069 34.6421 45.0256 33.5263 45.0256H17.2525C16.1237 45.0256 15.2183 44.107 15.2183 42.9916ZM50.3544 24H89.6327C90.9398 24 92 25.0608 92 26.3689V46.3236C92 47.6315 90.9397 48.6907 89.6327 48.6907H50.3544C49.0462 48.6907 47.9872 47.6315 47.9872 46.3236V26.3691C47.9872 25.0608 49.0462 24 50.3544 24Z" stroke="white" stroke-width="3"/>
</svg>
