<svg width="100" height="100" viewBox="0 0 100 100" fill="none" xmlns="http://www.w3.org/2000/svg">
<path d="M38.8113 49.9385C37.7054 46.0334 33.1349 44.3145 29.7297 46.5229L25.4602 49.2919C22.6788 51.0958 21 54.1855 21 57.5007V66.6333C21 70.374 22.2284 74.0111 24.4965 76.9858L27.4577 80.8694C30.2369 84.5144 35.0666 85.9235 39.3698 84.3448L41.1173 83.7037C43.1651 82.9524 45.4489 83.2284 47.2588 84.4457L47.717 84.7538C49.7363 86.112 52.3769 86.112 54.3962 84.7538C56.4155 83.3957 59.0562 83.3957 61.0755 84.7538C63.0948 86.112 65.7354 86.112 67.7547 84.7538L69.3672 83.6693C70.493 82.9121 71.819 82.5077 73.1758 82.5077C76.9447 82.5077 80 79.4524 80 75.6835V60.0067C80 57.5474 78.0064 55.5538 75.5472 55.5538C73.0879 55.5538 71.0943 57.5474 71.0943 60.0067V65.6615V54.3716C71.0943 50.6827 68.1039 47.6923 64.4151 47.6923C60.7263 47.6923 57.7359 50.6827 57.7359 54.3716V64.5385V20.6792C57.7359 16.9904 54.7454 14 51.0566 14C47.3678 14 44.3774 16.9904 44.3774 20.6792V64.5385V56.0611C44.3774 52.6797 41.6362 49.9385 38.2547 49.9385C34.8733 49.9385 32.1321 52.6797 32.1321 56.0611V67.9077" stroke="#F20404" stroke-width="4" stroke-linecap="round" stroke-linejoin="round"/>
</svg>
