<svg width="100" height="100" viewBox="0 0 100 100" fill="none" xmlns="http://www.w3.org/2000/svg">
<path d="M45.016 2C44.6003 2.00041 44.1805 2.02047 43.7564 2.0583C41.7433 2.13024 41.1597 2.24601 39.6168 2.76883C37.2343 3.57735 34.5603 5.13402 34.2713 5.88279C34.1566 6.17986 33.9751 6.47838 33.8712 6.54164C33.7204 6.63342 33.5349 7.73653 33.3856 9.07407C33.322 9.50841 33.2763 9.99236 33.2479 10.502C33.2456 10.5301 33.2435 10.5576 33.2414 10.5859C33.2391 10.6318 33.2368 10.6752 33.2349 10.7215C33.1516 11.8351 33.1087 12.9178 33.1495 13.6029C33.2084 14.5911 33.5 16.5447 33.7989 17.9442C34.0979 19.3442 34.3855 20.721 34.4419 21.0063C34.4982 21.2916 34.7341 21.9283 34.9608 22.4203C35.1855 22.9144 35.7942 24.5434 36.3106 26.0381C36.7284 27.2433 37.0034 28.1757 37.2028 29.2176C37.3371 29.9577 37.44 30.7432 37.5261 31.6859C37.6142 32.7237 37.6856 33.9496 37.7549 35.5807C38.0005 41.2906 38.647 48.001 39.3293 51.809C39.5434 53.0039 39.7848 54.6784 39.8604 55.5301C39.9359 56.3818 40.5069 59.1086 41.1325 61.5893C42.0309 65.1533 42.5032 67.2041 42.7194 68.8889C42.7971 69.7531 42.8139 70.6461 42.8181 71.8865L42.8244 73.4122C42.7488 75.0515 42.6229 75.587 42.203 76.5586C41.6699 77.7866 41.4935 79.1014 41.7685 79.8084C41.821 79.9304 41.991 80.0296 42.1821 80.0854C42.2282 80.1061 42.2723 80.1123 42.3206 80.1123C42.6103 80.164 42.9042 80.1288 42.9042 79.9572C42.9042 79.8601 43.4311 78.9132 44.0776 77.8569C45.4484 75.618 45.7717 74.7807 46.0131 72.7982C46.0634 72.3847 46.1033 72.1036 46.139 71.9134C46.1999 71.7377 46.2566 71.6777 46.3342 71.7191C46.3594 71.7666 46.3888 71.8245 46.4203 71.901C46.8527 72.9202 47.4888 73.315 48.7105 73.315C49.7622 73.315 49.8252 73.284 49.8252 72.792C49.8252 72.424 49.6719 72.2069 49.3004 72.0684C49.1618 72.0168 49.017 71.9031 48.8869 71.7645L48.8806 71.7583C48.635 71.4958 48.4355 71.1402 48.4082 70.8921C48.488 70.7598 48.7441 70.7226 49.1828 70.7702C49.2101 70.7784 49.2374 70.7846 49.2668 70.795C49.6489 70.9314 50.2177 71.041 50.5263 71.041C50.9713 71.041 51.0847 70.9418 51.0847 70.5696C51.0847 69.811 50.5431 69.2528 49.3067 68.7484L48.5909 68.4631C48.297 68.2687 48.2214 68.1261 48.1857 67.8822C48.1773 67.8263 48.1668 67.7705 48.1584 67.7147C48.1563 67.6279 48.1521 67.5287 48.1521 67.417C48.1521 67.3819 48.1479 67.3364 48.1458 67.2951V67.2041C48.1437 67.1876 48.1395 67.169 48.1395 67.1524C48.1186 66.5756 47.9821 65.5668 47.8121 64.7998C47.7764 64.6448 47.7428 64.4608 47.7134 64.2644C47.598 63.2308 47.5119 62.2777 47.4636 61.4798C47.4426 61.0043 47.4258 60.504 47.4174 59.981C47.3754 57.3948 47.2474 56.0883 46.8213 54.0127C46.5211 52.5511 46.1558 51.2012 46.0131 51.0151C45.5575 50.4177 45.1398 50.1613 44.6423 50.1613C44.0608 50.1613 44.0314 50.488 44.4597 52.1769C44.9278 54.0334 45.2154 57.2377 45.1944 60.3944L45.1734 63.1005C45.1482 63.0674 45.102 62.9641 45.0495 62.8111L44.3736 60.1877C44.0335 58.8688 43.6977 57.5705 43.4542 56.6609C43.1876 55.4929 42.9839 54.5337 42.9839 54.2773C42.9797 53.8101 43.0154 53.6199 43.1477 53.5021C43.1981 53.4793 43.2505 53.469 43.3177 53.469C43.6914 53.469 43.7375 53.3264 43.7375 52.2224C43.7375 51.9992 43.7585 51.6849 43.7837 51.3438C43.8383 50.7774 43.9223 50.0456 44.0062 49.322C44.0188 49.2393 44.0272 49.1484 44.0398 49.0698C44.3043 47.387 44.4597 46.1136 44.5038 45.2639C44.5289 44.9249 44.531 44.6933 44.5121 44.5404C44.4954 44.2778 44.4555 44.1104 44.3862 44.069C44.3673 44.0566 44.3463 44.0359 44.3274 44.0049C44.3148 43.9119 44.3043 43.8147 44.2875 43.7217C44.2497 43.2483 44.191 42.7873 44.1112 42.3242C44.0692 41.8797 43.9999 41.4022 43.9139 41.0652C43.7858 40.5546 43.6956 39.3452 43.7187 38.3778C43.7229 38.1586 43.7208 37.954 43.7187 37.7576C43.7271 37.3772 43.7061 37.0423 43.6515 36.7177C43.5906 36.2298 43.4877 35.7792 43.3303 35.2954C43.0952 34.5719 42.8979 33.5713 42.8979 33.0751C42.8979 32.2152 42.8664 32.1759 42.287 32.1759C41.7937 32.1759 41.6342 32.2937 41.4473 32.8229C41.1304 33.7181 41.1639 34.6298 41.5523 36.0396C41.5859 36.1595 41.6111 36.2939 41.6384 36.4324C41.7202 37.0547 41.7979 37.832 41.8546 38.5907C41.863 38.8863 41.8714 39.1923 41.8672 39.5148C41.8567 40.7655 41.9994 42.963 42.1821 44.3998C42.2303 44.774 42.2618 45.0861 42.2933 45.3941C42.35 46.1094 42.3899 46.74 42.3983 47.0997C42.3962 47.2733 42.3836 47.4284 42.3668 47.571C42.3584 47.6248 42.3521 47.6682 42.3458 47.7261C42.3353 47.7901 42.3206 47.8542 42.308 47.9142C42.2597 48.1271 42.2177 48.278 42.1883 48.3524C42.1653 48.3524 42.1464 48.3235 42.1296 48.2822C42.1086 48.1085 42.0939 47.695 42.0834 47.0604C42.0834 46.9901 42.0792 46.9239 42.0771 46.8537C42.0771 46.7441 42.075 46.6387 42.0708 46.5312V46.4919C42.0288 45.2081 41.842 44.0731 41.4158 42.409C41.0737 41.0818 40.8176 39.4445 40.6412 37.6294C40.5573 36.7219 40.4922 35.6923 40.4313 34.4313C40.425 34.2804 40.4166 34.1315 40.4103 33.9786C40.3998 33.4989 40.3935 33.0131 40.3914 32.5252C40.3914 32.4632 40.3872 32.3867 40.3851 32.3185C40.3851 32.2565 40.3872 32.18 40.3851 32.1118C40.3851 32.0849 40.3788 32.0539 40.3788 32.027C40.3474 30.9872 40.1794 29.3457 39.9779 28.1839C39.4384 25.0768 39.2663 23.3403 39.5203 23.5966C39.7932 23.8757 40.5468 26.1352 40.7189 27.1958C40.8407 27.9441 40.9099 28.0454 41.3487 28.002C41.4137 28.0165 41.4767 28.0041 41.546 27.971C42.0792 27.8387 42.2891 27.3281 42.2282 26.2386C42.2219 25.9037 42.18 25.5337 42.1107 25.1471C42.1023 25.0851 42.0876 25.0272 42.0771 24.9672C42.075 24.9486 42.075 24.9321 42.0708 24.9155C41.8924 23.8467 41.5922 22.9723 41.0338 21.8973C40.5762 21.0125 40.1311 20.0574 40.0514 19.7721C40.0451 19.7494 40.043 19.7411 40.0367 19.7204C40.0262 19.6171 40.0304 19.5364 40.0514 19.4806C40.0913 19.4889 40.15 19.5075 40.2151 19.5261C40.2445 19.5509 40.2634 19.5612 40.2991 19.5923C41.5796 20.6962 46.0257 20.661 48.6182 19.5199C49.166 19.2801 49.6153 19.001 49.6153 18.9059C49.6153 18.8873 49.6237 18.8728 49.6342 18.8542C49.6803 18.8253 49.7181 18.7943 49.7601 18.7653C49.8084 18.7467 49.8651 18.7385 49.9301 18.7385C50.1023 18.7385 50.2513 18.576 50.2513 18.3769C50.2513 18.178 50.4361 17.736 50.6649 17.3949C50.8937 17.0538 51.0826 16.5655 51.0847 16.3096C51.0847 16.2515 51.0931 16.1965 51.1036 16.1481C51.1582 16.0336 51.217 15.9412 51.282 15.8769C51.324 15.8558 51.3723 15.8445 51.4248 15.8445C51.557 15.8445 51.6326 15.8598 51.6494 15.9025C51.6473 15.9212 51.6389 15.9509 51.6347 15.9737C51.6179 16.0127 51.5822 16.0605 51.5297 16.1223C51.3681 16.3156 51.3366 17.1762 51.4311 18.9142L51.4584 19.4041L51.4059 21.4135L49.9889 21.4197H49.949C49.8399 21.4197 49.7475 21.4239 49.6468 21.4259C48.2634 21.4321 47.8436 21.5252 46.8863 22.0069C44.9152 23.0012 44.3757 23.3754 44.3736 23.733C44.3694 24.8845 45.0558 25.0024 47.2663 24.2168C47.4825 24.1403 47.6945 24.07 47.9023 24.0101C48.5342 23.8695 49.2836 23.7496 49.8063 23.7062C49.8987 23.7041 49.9868 23.7 50.0813 23.7H50.9734C51.0847 23.7227 51.1771 23.7599 51.2484 23.8095C51.3513 23.9026 51.4101 24.0431 51.4521 24.2499C51.4542 24.2643 51.4563 24.2726 51.4584 24.2891C51.4605 24.2933 51.4563 24.3016 51.4584 24.3078C51.4731 24.4008 51.4856 24.5021 51.4982 24.624L51.5171 25.0499C51.5234 25.4902 51.5507 25.974 51.6032 26.4908C51.7858 29.2486 52.2959 31.6508 53.3014 34.4499C54.0991 36.6681 55.1466 40.4202 55.5917 42.5764C55.6525 42.9217 55.7113 43.2628 55.7617 43.5977C55.7827 43.761 55.8037 43.9036 55.8268 44.1145C55.852 44.346 55.8771 44.5796 55.9002 44.8442C55.9044 44.8918 55.9023 44.9331 55.9065 44.9807C55.9611 45.6526 56.0136 46.3927 56.0367 47.0604C56.0892 48.4827 56.2781 51.5051 56.4565 53.7791C56.6371 56.0531 56.868 59.03 56.9687 60.3944C57.5628 68.3825 58.4004 71.1257 61.0747 73.8256C62.307 75.0681 63.6798 77.2987 63.6798 78.0512C63.6798 78.2021 63.9065 78.2786 64.2508 78.2372C64.7231 78.1835 64.868 78.016 65.1031 77.2429C65.5124 75.9012 65.2668 73.3626 64.5846 71.8948C64.0409 70.7247 63.281 69.5443 62.9976 69.4202C62.9808 69.412 62.9661 69.4016 62.9514 69.3872C62.9283 69.3541 62.9073 69.321 62.8863 69.29C62.8569 69.228 62.8401 69.1515 62.8401 69.0771C62.8401 68.9282 62.6974 68.7546 62.5253 68.6905C62.3531 68.6243 62.2419 68.3742 62.2167 68.0186C62.2167 67.9214 62.2167 67.8429 62.2104 67.7664C62.1978 67.3095 62.0865 67.1255 61.7906 67.049C61.7507 67.0387 61.7192 67.0242 61.6856 67.0098C61.4883 66.8113 61.461 66.7079 61.568 66.4929H61.5806C61.8829 66.4929 61.8409 65.6226 61.5156 65.143C61.1776 64.6489 60.254 61.2193 60.3673 60.8864C60.4114 60.7541 60.7745 60.5412 61.1734 60.413C61.757 60.229 61.8787 60.1277 61.9417 59.5551C62.032 59.305 62.0488 59.0424 61.9669 58.8129C61.9459 58.5153 61.864 58.3643 61.6982 58.3023C61.6856 58.2961 61.6772 58.2879 61.6667 58.2817C61.6457 58.2506 61.6289 58.2196 61.6058 58.1928C61.524 58.0894 61.4505 57.9592 61.3959 57.8289C61.3812 57.7524 61.3707 57.6656 61.3707 57.5788C61.3707 57.1033 61.2742 56.9772 60.8984 56.9586C60.8543 56.9565 60.8228 56.9482 60.7934 56.9441C60.7473 56.8862 60.8375 56.8283 61.0558 56.7705C61.4316 56.6878 62.0362 56.6051 62.5652 56.5885C63.7701 56.5555 64.0997 56.3963 64.0997 55.8402C64.0997 54.9368 63.8897 54.7094 63.0438 54.7094H62.4854C62.3972 54.699 62.3279 54.6825 62.2755 54.6639L62.2566 54.3228L62.2692 54.0375C62.3762 53.7191 62.372 53.4504 62.2755 53.2499C62.2461 53.0245 62.1453 52.9522 61.8829 52.9129C61.7654 52.8715 61.631 52.8447 61.4757 52.8426C61.2532 52.7661 61.0558 52.6566 60.9635 52.5511C60.9593 52.5284 60.9509 52.5015 60.9509 52.4746V52.4622C60.9509 51.9185 60.5268 51.6084 59.7837 51.6084C59.5276 51.6084 59.3681 51.6043 59.2652 51.5319C59.0532 51.2529 59.0133 50.5396 58.9294 48.7018C58.8874 47.7612 58.8685 47.1782 58.8391 46.4795C58.8307 46.128 58.8181 45.7745 58.8118 45.4252L58.7467 41.9645C58.7677 41.8756 58.7971 41.8363 58.8328 41.8074C58.837 41.8033 58.8517 41.795 58.858 41.7888L60.531 41.2327C61.4043 40.9433 62.54 40.7241 63.6987 40.5939C63.9611 40.5774 64.2403 40.565 64.551 40.5546C64.7462 40.5546 64.9267 40.5484 65.1493 40.5484H67.0112C67.3576 40.5567 67.6536 40.565 67.8593 40.6001L67.8845 40.6063C68.2414 40.6745 68.4051 40.8089 68.5017 41.059C68.5038 41.0859 68.508 41.1128 68.508 41.1438C68.508 41.1769 68.5101 41.212 68.5142 41.2472V41.2658C68.5142 41.4373 68.5457 41.6069 68.5793 41.7371L68.6129 42.0596C68.6948 42.8183 68.8543 43.5522 68.974 43.6948C69.3602 44.16 70.6911 44.007 71.2369 43.4364C71.3398 43.3269 71.4468 43.2359 71.5455 43.1511C71.6861 43.0767 71.81 43.023 71.8918 43.0106C71.938 43.0209 71.9842 43.0395 72.0241 43.0684C72.1102 43.2235 72.2109 43.486 72.2928 43.7982C72.9624 46.3575 73.7118 47.8067 75.0616 49.1339C75.2023 49.2724 75.3093 49.3799 75.3828 49.4647C75.4542 49.6011 75.4269 49.6734 75.3429 49.7417C75.3177 49.7437 75.2946 49.7417 75.2652 49.7417C74.5662 49.7417 74.3101 51.2942 74.9105 51.8875C75.0826 52.057 75.2254 52.3423 75.2254 52.5201C75.2254 52.6979 75.6977 53.314 76.2749 53.8887C77.0391 54.6577 77.3833 55.1786 77.5282 56.0717C77.5596 56.4335 77.5659 56.88 77.5659 57.494C77.568 58.4822 77.5429 59.0424 77.4547 59.5489C77.3791 59.8983 77.27 60.2332 77.1335 60.5619C76.5394 62.0069 76.6129 62.6395 77.377 62.7263C78.561 62.8607 79.3062 61.3764 79.6798 58.1535C79.873 56.4769 80.1165 55.7161 80.5321 55.5632C80.6035 55.5466 80.6748 55.5549 80.742 55.588C80.8092 55.6686 80.8512 55.834 80.8743 56.0655C80.8743 56.0821 80.8722 56.1007 80.8743 56.1172C80.8806 56.4108 80.8701 56.7705 80.8533 57.1901C80.7693 57.9654 80.5972 58.9391 80.3495 59.9872C80.1794 60.6611 79.98 61.3288 79.7575 61.9387C79.4195 62.869 79.2579 63.7703 79.2537 64.5352C79.2117 64.8991 79.2327 65.1368 79.3314 65.4014C79.4846 66.1891 79.8688 66.6935 80.4607 66.6935C80.9729 66.6935 81.1514 66.5343 81.6405 65.6081C81.9553 65.0107 82.2765 64.4773 82.3563 64.4194C82.4864 64.3264 82.6502 63.8179 83.5423 60.6983C83.6893 60.1856 84.0063 59.2616 84.2456 58.6372C84.4828 58.0129 84.678 57.2935 84.678 57.0413C84.678 56.7911 84.7641 56.5369 84.869 56.4728C85.1776 56.2846 84.8879 52.1604 84.5478 51.8937C84.3862 51.7676 84.2582 51.5113 84.2582 51.3252C84.2582 51.1371 84.1679 50.982 84.0608 50.982C84.0335 50.982 84.0042 50.9696 83.9769 50.9428C83.9412 50.8683 83.895 50.7919 83.8446 50.7112C83.8278 50.6575 83.8089 50.5975 83.7984 50.5355C83.7627 50.2916 83.5444 49.9897 83.3135 49.8636C83.0826 49.7396 82.4487 49.2207 81.9092 48.708C79.5056 46.4278 78.5903 45.5037 78.5903 45.3549C78.5903 45.268 78.4518 45.1936 78.2881 45.1936C77.9102 45.1936 76.1217 42.6839 75.7963 41.6978C75.6263 41.1872 75.4059 40.935 75.0868 40.8916C75.0469 40.8854 75.0028 40.873 74.963 40.8585C74.9483 40.8482 74.9315 40.8358 74.9168 40.8275C74.7887 40.7448 74.6523 40.629 74.5368 40.5091C74.5116 40.4699 74.4906 40.4285 74.478 40.3872C74.3983 40.1453 73.9029 39.4135 73.3676 38.7664C72.2214 37.3731 71.6273 37.1539 68.0755 37.003C67.5423 36.9575 67.049 36.9389 66.5914 36.9431C66.1988 36.9327 65.8693 36.9286 65.5943 36.9368C64.6245 36.9431 64.1731 37.0237 63.6861 37.2159C62.6071 37.6397 60.2141 38.1855 59.2442 38.2682C59.0091 38.2682 58.8454 38.2682 58.7006 38.1648C58.5347 38.0077 58.3668 37.708 58.2681 37.3896C58.1359 36.9658 57.6069 35.312 57.0926 33.7201C55.5119 28.8207 54.9388 26.8402 54.7394 23.2617C54.7037 22.3728 54.6701 21.1427 54.6407 19.7535C54.6302 18.7591 54.6323 17.6562 54.6344 16.3807C54.6365 12.9678 54.5505 10.0339 54.4434 9.83649C54.3363 9.63968 54.1411 8.79416 54.011 7.95649C53.6436 5.62438 52.5793 3.97902 50.8748 3.12419C49.5145 2.44199 48.5111 2.13582 46.9262 2.04527C46.5211 2.01075 46.0488 1.99938 45.4631 2.00662C45.314 2.00186 45.165 2 45.016 2ZM46.3216 5.49517C47.3167 5.49765 48.192 5.57621 48.6433 5.71472C48.6853 5.73746 48.7147 5.76558 48.742 5.79224C48.8722 5.91938 48.9246 6.00331 48.868 6.09593C48.8239 6.13686 48.763 6.18503 48.6958 6.23795C48.6937 6.23981 48.6937 6.24271 48.6895 6.24457C48.6874 6.24663 48.6853 6.2487 48.6832 6.25098C48.5972 6.30576 48.4859 6.36923 48.3369 6.44468C47.0795 7.08017 46.7625 7.58645 46.6113 9.19046C46.4161 11.2427 47.1487 13.3941 48.2445 13.9711C48.2571 13.9781 48.2697 13.9893 48.2823 13.9969C48.5951 14.3676 48.7441 14.6124 48.7483 14.785C48.7315 14.9729 48.6014 15.0969 48.3558 15.0306C48.2172 14.9934 47.705 14.9369 47.1487 14.8883C46.8611 14.8288 46.5798 14.8168 46.3028 14.8367C44.9173 14.8205 44.1637 15.2427 44.1637 16.0512C44.1637 16.6459 44.1973 16.6643 45.1608 16.6714C45.2972 16.6724 45.4442 16.683 45.5869 16.6972C45.5953 16.6983 45.5995 16.6964 45.6079 16.6972C45.864 16.7262 46.1852 16.7902 46.4539 16.8653C46.5274 16.8899 46.5945 16.9159 46.6428 16.9428L47.1214 17.2076L46.5589 17.4596C46.3258 17.5638 45.8976 17.6875 45.4883 17.7697C45.482 17.7706 45.4757 17.7753 45.4694 17.7761C45.2028 17.7964 44.8837 17.8016 44.466 17.802C43.4521 17.803 42.5536 17.6833 41.8021 17.453C41.5082 17.3596 41.2878 17.2616 41.2059 17.1624C41.0716 17.004 40.847 16.8717 40.7063 16.8717C40.3264 16.8717 39.4846 15.8459 39.092 14.9078C38.456 13.3873 38.1474 12.5986 37.9711 11.9491C37.9354 11.8196 37.9081 11.7012 37.8787 11.5807C37.8262 11.3357 37.7885 11.0971 37.7549 10.8249C37.6142 9.70067 37.5743 9.63617 37.0264 9.63617C36.466 9.63617 36.4429 9.67855 36.3106 11.0316C36.1448 12.7607 36.6402 15.9739 37.1251 16.3226C37.2196 16.3904 37.3035 16.5349 37.3665 16.7167C37.3749 16.7417 37.3875 16.7617 37.3938 16.7878C37.398 16.8002 37.3959 16.8138 37.4001 16.8264C37.4043 16.8374 37.4106 16.8477 37.4127 16.8589C37.4526 17.0075 37.4799 17.1719 37.4862 17.3368C37.5366 18.6942 37.3203 18.3804 36.6402 16.0965C36.3463 15.1166 36.1532 14.1735 36.0482 13.2603C36.0314 12.9141 36.023 12.5279 36.023 12.033C36.0251 11.1006 36.0608 10.369 36.1343 9.79762C36.1574 9.66987 36.1784 9.54273 36.2057 9.41662C36.4009 8.52231 36.5394 8.30649 37.0453 8.11795C37.3686 7.99846 37.5995 7.78739 37.6436 7.58831C37.6499 7.57218 37.6541 7.55792 37.6562 7.54303V7.53001C37.6562 7.52629 37.6541 7.52133 37.6562 7.51719C37.8346 7.37868 38.1957 7.20421 38.6533 7.0198C39.0144 6.92471 39.472 6.79281 39.9317 6.63859C41.7496 6.03122 43.0973 5.70976 44.4912 5.5727C45.1041 5.52184 45.7339 5.49373 46.3216 5.49517ZM47.8247 24.9341C47.4132 24.9341 46.8695 25.052 46.6176 25.1926C46.5379 25.236 46.372 25.2773 46.1831 25.3228C45.8325 25.3848 45.4253 25.451 45.016 25.5089C44.8711 25.5233 44.7284 25.544 44.5835 25.5543L43.0091 25.6577V26.0588C42.8727 26.2965 42.8853 26.5218 43.0217 26.7161C43.0595 27.0821 43.2149 27.1379 43.8488 27.2412C44.1385 27.2888 44.4786 27.3136 44.827 27.3177C44.974 27.3239 45.1125 27.3239 45.2532 27.3177C46.0613 27.295 46.7961 27.1772 46.8527 27.0076C46.8926 26.8919 47.0186 26.7947 47.1277 26.7947C47.6001 26.7947 48.572 25.8644 48.572 25.4117C48.572 25.0024 48.467 24.9341 47.8247 24.9341ZM51.1834 43.3909C51.1477 43.3909 51.1078 43.3971 51.0721 43.3971C50.9525 43.3992 50.8328 43.4013 50.7048 43.4116C49.7412 43.453 48.7063 43.5811 48.2109 43.7651C47.5119 44.0277 47.3167 44.2985 47.3125 45.0386C47.3104 45.4934 47.218 45.6071 46.8276 45.6071C46.5589 45.6071 45.9459 45.9068 45.4631 46.2727C44.8291 46.7503 44.6066 47.0542 44.5898 47.4614C44.5898 47.4676 44.5835 47.4738 44.5835 47.48V47.5007V47.5131C44.5835 48.1374 44.8144 48.2098 45.9081 47.8997C46.1222 47.8914 46.3468 47.8811 46.5715 47.8749C46.9031 47.8666 47.1508 47.8687 47.3377 47.8873C47.3964 47.908 47.4594 47.9266 47.5224 47.9514C47.7302 48.0403 47.875 48.1044 47.9611 48.1581C48.0094 48.2119 48.0388 48.2532 48.0409 48.2884C47.9842 48.3711 47.7029 48.4558 47.155 48.6171C47.0102 48.6605 46.8926 48.9602 46.8926 49.2827V49.322V49.3468C46.8926 49.3613 46.8926 49.3799 46.8989 49.3985C46.922 49.6921 47.027 50.0001 47.155 50.1303C47.281 50.2564 47.6022 50.3246 48.1458 50.337C48.2424 50.3474 48.3453 50.3577 48.4481 50.3619C48.467 50.366 48.551 50.3784 48.5594 50.3805C48.6643 50.4073 48.8596 50.3887 49.0968 50.3433C49.2311 50.3308 49.3613 50.3143 49.4914 50.2916C50.3416 50.2254 50.6145 50.1117 50.8811 49.7871C51.0889 49.5329 51.4479 49.3282 51.6746 49.3282C51.9013 49.3282 52.8585 48.6998 53.8011 47.9328C54.9619 46.988 55.3628 46.5952 55.4405 46.2459C55.4741 46.1983 55.4993 46.1611 55.4993 46.1363C55.4993 46.0371 55.472 45.9461 55.4279 45.8655C55.3733 45.6195 55.2432 45.5327 54.7898 45.4851C54.7604 45.4768 54.731 45.4644 54.6995 45.4582C54.4875 45.4004 54.2314 45.3797 53.9438 45.4004H53.419L53.0726 45.3817L53.1503 44.5672C53.2217 43.8313 53.1734 43.7279 52.6318 43.5212C52.4576 43.453 52.1343 43.4199 51.7396 43.4033C51.6557 43.3992 51.5654 43.3992 51.471 43.3971C51.3744 43.3971 51.2862 43.3909 51.1834 43.3909ZM65.6678 44.7161C65.2563 44.7161 64.8701 44.7409 64.5321 44.7926C62.7709 45.0696 61.1671 46.0205 61.1671 46.7896C61.1671 47.2878 61.2091 47.3085 62.0593 47.1762C62.7436 47.0707 63.2201 47.0004 63.5812 46.957H63.5875C64.0283 46.9612 64.3956 46.9694 64.6643 46.9963H64.6706C64.6916 47.0066 64.7084 47.0211 64.7294 47.0356C64.8806 47.1348 64.954 47.2072 64.933 47.2733C64.8281 47.3374 64.5552 47.4366 64.2046 47.5317C63.98 47.5751 63.7113 47.6144 63.3649 47.6682C61.4652 47.9638 60.7473 48.2801 60.7473 48.8176C60.7473 49.1918 60.9929 49.2848 62.8653 49.6197C65.3004 50.0559 66.2975 49.905 67.0322 48.985C67.1267 48.8672 67.2044 48.7804 67.2736 48.7142C67.3009 48.6915 67.3366 48.6605 67.3597 48.6439C67.5066 48.5385 67.6158 48.5736 67.7795 48.708C67.9538 48.8507 68.0944 49.0967 68.0944 49.2579C68.0944 49.4171 68.3547 49.6548 68.6717 49.7871L69.2091 50.0063L69.2154 50.0125C69.2196 50.0187 69.2238 50.0208 69.2301 50.027L68.6717 50.1034C67.9769 50.1965 67.9328 50.5769 68.4807 51.842C68.5478 51.993 68.6108 52.2038 68.6717 52.4416C68.7263 52.6752 68.7788 52.9046 68.8228 53.1341C68.8984 53.5682 68.9572 54.0437 68.9866 54.4964C69.0495 55.4639 69.2595 56.6485 69.4589 57.1322C69.7633 57.8723 69.8409 57.986 70.4497 58.0046C70.5526 58.0129 70.6659 58.017 70.8108 58.017C70.9661 58.017 71.0858 58.017 71.1907 58.0232C71.4258 58.077 71.5497 58.2692 71.663 58.7592C71.6651 58.7923 71.6672 58.8171 71.6693 58.8502C71.7197 60.3221 72.3831 63.1956 73.355 66.1126C74.4025 69.2548 74.4067 69.2652 75.8215 70.7185C77.1251 72.056 77.9396 73.1124 78.3615 74.1605C78.3636 74.1729 78.3699 74.1833 78.3741 74.1936C78.3783 74.206 78.3825 74.2205 78.3867 74.2329C78.5337 74.6856 78.6197 75.1549 78.6491 75.6614C78.7037 76.5937 78.6281 77.4372 78.3741 78.3158C77.9942 79.5686 77.2511 80.8503 75.7564 82.9217C74.3878 84.8174 74.5053 84.6645 73.7286 85.5761C73.0737 86.3472 73.0506 86.3596 72.8827 85.9131C72.7315 85.5079 72.5972 85.4686 71.7869 85.5575C71.5686 85.5823 71.3985 85.5927 71.2684 85.5968C71.0942 85.5679 70.9598 85.5203 70.8695 85.448C70.8129 85.3591 70.7793 85.2288 70.7373 85.0283C70.7205 84.9373 70.71 84.8402 70.7058 84.7492C70.7121 84.6934 70.7163 84.6396 70.7247 84.5756C70.7436 84.4515 70.7478 84.3874 70.7646 84.2779C70.7814 84.2407 70.8003 84.2097 70.8234 84.1869C71.1026 83.914 71.0921 83.0458 70.8045 82.2313C70.6197 81.7144 70.4539 81.578 69.9963 81.578C69.5093 81.578 69.377 81.7062 69.1377 82.4235C68.6696 83.8231 67.3303 85.6857 66.6775 85.8407C66.3626 85.9172 66.054 86.0392 65.9952 86.1074C65.9364 86.1736 65.7076 86.3266 65.483 86.4485C65.2605 86.5705 64.9414 87.0584 64.7819 87.5339C64.6182 88.0176 64.3558 88.4001 64.1857 88.4001C64.0178 88.4001 63.831 88.5406 63.7659 88.7101C63.7533 88.7391 63.7365 88.768 63.7197 88.7949C63.6987 88.8094 63.6672 88.828 63.6399 88.8466C63.5392 88.9107 63.4468 88.9665 63.3524 89.0264C63.1697 89.0616 62.6512 89.3262 62.1369 89.6466C61.7696 89.8761 61.2658 90.12 60.8186 90.2999C60.107 90.5624 59.5318 90.6451 59.028 90.519C58.8769 90.4446 58.7089 90.3412 58.478 90.1821C57.7349 89.6776 56.996 88.584 56.6664 87.5091C56.488 86.9261 55.2075 87.1059 55.1193 87.7282C55.113 87.7675 55.1067 87.8047 55.0983 87.8378C55.0102 87.9473 54.922 88.0341 54.8443 88.0962C54.7898 88.1272 54.7289 88.152 54.6659 88.1747C54.5736 88.1851 54.4665 88.1933 54.3321 88.1933C53.6478 88.1933 53.61 88.2264 53.61 88.9169V88.9355V88.95V88.9562C53.6163 89.351 53.7297 89.8368 53.8661 90.0477C53.8913 90.087 53.906 90.1159 53.9249 90.1511C53.9501 90.4033 53.9396 90.5914 53.885 90.6865C53.8787 90.6927 53.8724 90.6989 53.8661 90.7072C53.8535 90.7237 53.8367 90.7423 53.8199 90.7526C53.8178 90.7526 53.8136 90.7506 53.8136 90.7526C53.757 90.7712 53.6814 90.6927 53.6163 90.5583C53.6142 90.5066 53.61 90.4632 53.61 90.3971C53.61 89.9836 53.4652 89.7789 53.0789 89.6342C52.7871 89.5247 52.4618 89.2022 52.3505 88.9169C52.191 88.5034 52.0062 88.3939 51.4458 88.3939C51.0574 88.3939 50.6796 88.4497 50.6061 88.522C50.5515 88.5758 50.1863 88.6295 49.7076 88.6585C49.5964 88.6419 49.4746 88.6316 49.3466 88.6254C49.1723 88.5882 49.0002 88.5882 48.8344 88.6254C48.8008 88.6295 48.7693 88.6337 48.7357 88.6399C48.6203 88.6502 48.509 88.6688 48.4082 88.6915L47.8373 88.7039L47.7785 89.4275C47.7764 89.4544 47.7743 89.473 47.7722 89.4978C47.7365 89.6756 47.7071 89.8678 47.6924 90.0601L47.6609 90.4736C47.6525 90.5108 47.642 90.5438 47.6336 90.5769C47.5728 90.7774 47.4762 90.8808 47.3188 90.9263C47.2285 90.9325 47.1214 90.9387 46.9514 90.9449L46.6428 90.9201C46.5421 90.9118 46.4413 90.9118 46.3426 90.9139C45.6835 90.8705 45.1671 90.9656 44.5184 91.2488L43.769 91.5796C43.7606 91.5796 43.7459 91.5837 43.7375 91.5858C43.7082 91.5899 43.6767 91.5899 43.6515 91.592C43.6263 91.5899 43.6074 91.5837 43.5927 91.5796C43.5633 91.5672 43.5255 91.5382 43.494 91.4948L43.3366 90.9201C43.2925 90.7588 43.2547 90.6307 43.2379 90.519C43.24 90.3247 43.282 90.1469 43.3765 89.9174C43.4206 89.8596 43.4751 89.7996 43.5402 89.7314C43.7753 89.4854 43.9538 89.0099 43.9538 88.6399C43.9538 88.6192 43.9475 88.6068 43.9475 88.5882C43.9475 88.5179 43.9475 88.4538 43.9349 88.3939C43.8551 87.8894 43.4856 87.8502 42.5704 88.1933C42.5494 88.2016 42.5305 88.2057 42.5095 88.2119C42.1862 88.2388 41.97 88.2367 41.8084 88.1809C41.7454 88.1313 41.6803 88.0672 41.6048 87.9866C41.0632 87.414 40.2676 87.4367 40.0829 88.0321C40.0535 88.1313 40.0241 88.2016 39.9989 88.2388C39.9569 88.245 39.9149 88.2202 39.8729 88.1685C39.8268 88.061 39.7701 87.8646 39.6903 87.5669C39.4993 86.8475 39.4048 86.6842 39.027 86.6491C38.8716 86.5602 38.7037 86.556 38.5358 86.6491C38.2902 86.6739 38.2146 86.769 38.1936 87.1266C38.1726 87.2465 38.1684 87.3912 38.181 87.5731V87.6517C38.181 88.2615 38.0781 88.6977 37.9249 88.7494C37.9102 88.7536 37.8934 88.7598 37.8787 88.7618C37.8598 88.7556 37.8388 88.7515 37.8199 88.7432C37.7234 88.6585 37.6247 88.491 37.5512 88.2843C37.4925 88.059 37.4463 87.7551 37.4001 87.3602C37.3602 87.0026 37.2301 86.8537 36.8753 86.7917C36.7263 86.7214 36.5646 86.7193 36.403 86.771C35.8509 86.8124 35.6011 87.1721 35.4647 88.0652C35.4353 88.2615 35.408 88.4187 35.3723 88.5427C35.2799 88.7515 35.1624 88.8859 34.9399 89.0326C34.8742 89.0554 34.7988 89.0678 34.7108 89.0843C34.2759 89.1712 34.059 89.3655 33.9629 89.7438C33.8306 90.2627 33.9381 90.7216 35.0511 94.3311C35.6389 96.2289 35.3912 96.047 38.3909 96.7664V96.7726C38.9514 96.907 39.5665 96.9752 40.36 96.9917C40.5846 97 40.8218 97.0021 41.08 96.9979C41.3907 97.0041 41.6992 96.9855 42.0057 96.9669C42.0246 96.9649 42.0393 96.9669 42.0582 96.9669C42.1317 96.9607 42.2009 96.9587 42.2744 96.9545C44.2812 96.8512 44.9068 96.6899 46.6113 95.9064C46.7247 95.8547 46.8192 95.8154 46.9052 95.7844C47.1424 95.7183 47.3272 95.7348 47.6735 95.8237C47.7533 95.8589 47.8457 95.8919 47.9485 95.9457C48.1752 96.0614 48.5489 96.1648 49.0254 96.2558C49.4347 96.3777 49.9385 96.448 50.8013 96.4873C52.212 96.6113 53.9123 96.6465 55.4993 96.5659C55.9653 96.5431 56.3558 96.5225 56.7189 96.4956C57.3592 96.4604 57.8651 96.4046 58.308 96.3075C59.0049 96.1813 59.5591 95.9994 60.256 95.7059C60.6192 95.5529 61.0181 95.4289 61.1482 95.4289C61.7276 95.4289 64.3453 93.9177 65.7055 92.7931C66.3773 92.239 66.7614 91.9289 67.1498 91.7325C67.3723 91.6354 67.6116 91.5527 67.8782 91.4824C68.1301 91.4245 68.4282 91.3749 68.8102 91.3191C69.5974 91.2054 70.5547 91.1144 71.113 91.0937C71.1823 91.0937 71.2516 91.0896 71.323 91.0875C72.4586 91.0875 73.4033 90.7754 74.5557 90.0208C75.0532 89.6962 75.5444 89.4337 75.6452 89.4337C75.746 89.4337 75.8551 89.3634 75.895 89.2787C75.9328 89.1939 76.3547 88.8611 76.8312 88.5427C77.8472 87.8646 78.1684 87.5525 79.0102 86.4361C79.3524 85.9813 79.726 85.4955 79.8436 85.357C79.9611 85.2206 80.0598 85.0345 80.0598 84.9435C80.0598 84.8546 80.3201 84.4825 80.6371 84.1166C81.7811 82.7977 82.4696 81.1128 82.7551 78.9091C82.8601 78.2765 82.9105 77.5116 82.9063 76.7198C82.9378 74.7187 82.8643 73.9993 82.5263 72.9987C82.0645 71.6322 81.3277 70.2079 81.0842 70.2079C81.0758 70.2079 81.0653 70.2037 81.0569 70.2017C81.0128 70.1397 80.9708 70.0694 80.9246 70.0135C80.9099 69.9929 80.8638 69.9453 80.8407 69.9164C80.826 69.8812 80.8134 69.8461 80.8008 69.8068C80.7315 69.5877 80.2697 69.0274 79.7848 68.5602C77.0915 65.9699 77.1692 66.0712 76.6297 64.3347C75.874 61.9118 75.8383 61.7196 75.7439 58.6827C75.6956 57.1632 75.6158 55.8443 75.5591 55.7554C75.5045 55.6665 75.3072 54.8706 75.1204 53.9796C74.816 52.5263 74.4948 51.4927 73.9658 50.2585C73.8672 50.0311 73.7265 49.63 73.651 49.3675C73.418 48.5488 70.4308 45.7931 69.2679 45.3218C68.3358 44.9455 66.8979 44.7161 65.6678 44.7161ZM49.2206 45.4975C49.229 45.4954 49.2395 45.4975 49.2479 45.4975C49.5544 45.5016 49.8756 45.4996 50.2051 45.4975H50.3563C50.4465 45.5037 50.5347 45.5078 50.625 45.5161C50.7194 45.5265 50.8139 45.5306 50.9063 45.543H50.9147C50.9462 45.5471 50.9797 45.5513 51.0112 45.5554C51.4521 45.6071 51.8299 45.6794 51.9706 45.7497C52.0104 45.7766 52.0251 45.8076 52.0167 45.8386C51.9978 45.8655 51.9769 45.8924 51.9496 45.9172C51.8866 45.9668 51.7795 46.0226 51.6284 46.0846C51.4961 46.1404 51.3513 46.1797 51.2023 46.2149C50.5158 46.3306 49.6069 46.2376 49.1493 45.9234C48.7966 45.6815 48.7903 45.6505 49.1094 45.5285C49.1388 45.5182 49.1765 45.5058 49.2206 45.4975ZM36.002 47.6806C35.9538 47.6826 35.8929 47.6909 35.8383 47.693C35.7984 47.695 35.7438 47.6992 35.7019 47.6992C35.6662 47.7012 35.641 47.7054 35.6032 47.7075C35.4227 47.7137 35.2463 47.7199 35.0322 47.7323C32.1798 47.8997 31.1565 48.3959 29.6398 50.3805C28.9968 51.2218 28.3005 52.425 28.0852 53.0493C27.87 53.6737 27.6712 54.2215 27.6456 54.2649C27.6202 54.3063 27.2159 54.1905 26.7469 54.0044C26.4407 53.8845 26.0322 53.7998 25.5859 53.7481C25.0292 53.6447 24.4485 53.6323 23.8541 53.7026C23.137 53.7439 22.4648 53.8597 22.0173 54.0499C19.9565 54.9285 18.3202 56.2495 17.609 57.6036C16.9899 58.7819 16.2445 60.9774 16.2445 61.6286C16.2445 61.6389 16.2447 61.6555 16.2445 61.6679C16.2162 61.8291 16.1855 61.9924 16.1658 62.1516C16.15 62.2777 16.111 62.5568 16.0871 62.7408C16.0677 62.8194 16.0491 62.9021 16.028 62.9723C15.8492 63.5657 15.7451 64.7854 15.7197 66.5777C15.7125 67.0036 15.7075 67.479 15.7132 68.0372C15.7225 69.5071 15.7708 71.2519 15.8575 73.2757C15.9062 74.4189 15.9473 75.3224 15.969 76.0604C15.9697 76.0831 15.9683 76.1038 15.969 76.1245C16.0307 78.2827 15.9707 78.9691 15.7591 79.7877C14.9065 83.0892 14.8931 83.1739 15.1359 85.0407C15.2647 86.0309 15.5468 87.2155 15.7591 87.6703C16.779 89.8554 18.9213 92.2452 21.0725 93.6014C22.0468 94.2133 22.8069 94.4758 24.956 94.9306V94.9368C25.734 95.1022 26.4731 95.1849 27.1537 95.1828C27.2278 95.189 27.3145 95.1953 27.3701 95.1973C27.554 95.2015 27.758 95.1828 27.9736 95.1374C28.7618 95.0505 29.4476 94.8335 30.0071 94.4924C31.9442 93.3119 33.6126 90.6741 32.4211 90.6741C32.1976 90.6741 31.3904 90.8229 30.6238 90.9966C30.3618 91.0565 30.0881 91.1082 29.8169 91.1516C28.9485 91.2715 28.0028 91.3273 27.1732 91.3191C26.1872 91.2881 25.2782 91.1413 24.5952 90.887C23.165 90.3557 21.2514 88.9996 20.2328 87.7861C19.8288 87.3044 19.3894 86.7958 19.2555 86.6553C18.7487 86.126 17.7472 84.3358 17.5104 83.5419C17.502 83.513 17.4922 83.482 17.4842 83.451C17.4485 83.2422 17.4229 83.0086 17.4055 82.715C17.3385 81.5739 17.3418 81.1501 17.5629 81.3589L17.8318 81.8881C18.484 83.1801 19.2744 84.2923 20.2198 85.2474C20.9119 85.9462 21.2348 86.126 21.8137 86.126C21.8505 86.126 21.8826 86.1302 21.9187 86.126C22.7857 86.0992 22.7227 85.7188 21.5908 83.3807C20.6304 81.3981 20.1487 80.0048 19.813 78.231C19.712 77.6977 19.4906 76.7674 19.3145 76.1637C18.8077 74.4293 18.1494 70.1314 18.0157 67.9793C17.9995 67.4852 18.0104 67.0532 18.0417 66.6749C18.0705 66.4371 18.1013 66.2263 18.1272 66.0485C18.1723 65.7983 18.2212 65.5585 18.2714 65.3683C18.3068 65.2629 18.3448 65.1637 18.383 65.0851C18.5464 64.8453 18.8016 64.8329 19.2882 64.8329C20.1378 64.8329 20.2045 64.7895 20.515 64.0246C20.6955 63.5801 21.0996 62.9723 21.4071 62.6685C21.8377 62.2447 21.9338 62.0462 21.8925 61.4033C21.9231 61.1552 21.9019 60.9237 21.827 60.7231L21.7613 60.0843L21.9187 60.0781H22.8371C24.2757 60.074 24.7618 59.952 24.8116 59.5096C24.8439 59.4166 24.8433 59.3194 24.7986 59.2264C24.732 58.8543 24.5146 58.7075 23.749 58.4884C23.2007 58.3313 22.7519 58.1183 22.7519 58.0108C22.7519 57.8868 22.9293 57.7876 23.1847 57.7193C23.3648 57.6842 23.5918 57.6615 23.867 57.6615C24.2541 57.6635 24.6678 57.7524 25.0675 57.8889C25.8175 58.2238 26.7403 58.846 26.7403 59.0838C26.7403 59.1871 26.3104 59.4497 25.7827 59.6709C24.938 60.0285 24.8317 60.1443 24.8905 60.6466C24.9327 61.0084 24.9646 61.1366 25.3169 61.1697C25.5236 61.24 25.8541 61.2503 26.373 61.2027C26.4456 61.2048 26.5166 61.2027 26.5894 61.2027C27.0508 61.2007 27.3566 61.2151 27.5735 61.2854C27.8915 61.457 28.0061 61.8064 28.1178 62.4948C28.24 63.2452 28.2026 63.3734 27.7637 63.6049C27.491 63.7496 26.9817 63.9295 26.6354 63.9998C26.1465 64.097 25.9915 64.2479 25.9401 64.6841C25.8761 65.2236 25.9116 65.2443 26.8848 65.2588C27.2804 65.265 27.7062 65.3043 27.9998 65.3559C28.0788 65.3725 28.1455 65.3849 28.2033 65.4014C28.2135 65.4035 28.2268 65.4117 28.236 65.4138C28.4237 65.4758 28.4965 65.5523 28.5049 65.6474C28.4732 65.8438 27.9608 66.0795 27.0552 66.28C25.7692 66.5632 25.4972 66.7803 25.4808 67.5989C25.4796 67.6196 25.4808 67.6403 25.4808 67.663V67.6692V67.6754V68.4052L26.6878 68.277C27.3516 68.2047 28.088 68.0889 28.3212 68.0248C28.3456 68.0186 28.3647 68.0145 28.3869 68.0124C28.4279 68.0124 28.465 68.0083 28.4984 68.0124C28.7621 68.0827 28.9422 68.6739 29.5742 71.0741C29.9365 72.4488 30.179 73.6292 30.3089 74.6464C30.3295 75.0123 30.3421 75.4175 30.3417 75.9115C30.3411 76.7819 30.3322 77.278 30.2762 77.6687C30.1922 78.0429 30.0722 78.382 29.9153 78.6776C29.3987 79.6533 29.3353 80.1598 29.7252 80.2983C29.8064 80.3583 29.9221 80.3666 30.0596 80.3314C30.975 80.2611 32.2511 78.4068 32.815 76.3064C32.9829 75.68 33.0478 74.8221 33.0314 73.9352C33.032 73.9001 33.0377 73.8608 33.0379 73.8256V73.8194C33.0379 73.805 33.0316 73.7884 33.0314 73.774C32.9999 72.7465 32.8519 71.6984 32.5983 70.9252C32.3575 70.1913 32.2039 69.4719 32.2572 69.3293C32.2706 69.2941 32.2904 69.2735 32.3097 69.2714H32.3162C32.3739 69.2735 32.4516 69.412 32.5131 69.6394C32.6374 70.1004 32.7837 70.2079 33.2938 70.2079C33.8868 70.2079 33.9141 70.1686 33.8121 69.536C33.7525 69.166 33.6074 68.492 33.484 68.0372C33.4749 68.0041 33.4661 67.9669 33.4577 67.9338C33.4315 67.7995 33.4092 67.6796 33.379 67.5266C33.3658 67.4604 33.3582 67.4088 33.3463 67.3467C33.2877 66.8568 33.273 66.4351 33.2873 66.0609C33.3158 65.5544 33.4029 65.1079 33.5627 64.8329C33.7348 64.5373 33.8232 63.9192 33.8448 63.1729C33.8503 63.1005 33.8494 63.022 33.8513 62.9475C33.852 62.869 33.8522 62.7925 33.8513 62.7139C33.8494 62.6333 33.8505 62.5547 33.8448 62.4679C33.8211 61.6617 33.7281 60.7748 33.5562 59.9748C33.5134 59.7763 33.4751 59.5696 33.438 59.3732C33.4076 59.1913 33.3744 59.0073 33.3398 58.8254C33.2833 58.4822 33.2478 58.2031 33.2478 58.0811C33.2478 57.6222 32.8842 57.3907 32.172 57.3907C31.6533 57.3907 30.9517 58.8274 30.9452 59.9045C30.944 60.1195 30.9353 60.3076 30.9257 60.4585C30.8837 60.7087 30.8455 60.9113 30.8207 60.996C30.699 61.1304 30.4998 60.4937 30.263 59.1354C30.1893 58.7117 30.1316 58.3209 30.086 57.9654C30.0283 57.4568 29.9945 56.971 29.9941 56.5885C29.9936 56.2516 30.0153 55.9622 30.0596 55.7037C30.2539 54.759 30.8109 54.2318 31.8439 53.7605C32.2887 53.5579 32.5989 53.4442 32.9592 53.3842C33.0289 53.376 33.0954 53.3594 33.1756 53.3532C33.1884 53.3512 33.202 53.3532 33.2151 53.3532C33.3809 53.3408 33.6192 53.345 33.8513 53.3408C33.8891 53.3408 33.9296 53.3388 33.9695 53.3408C34.1309 53.3491 34.3098 53.3594 34.5073 53.3718C34.8992 53.3987 35.2126 53.4111 35.4708 53.4173C36.4008 53.4504 36.701 53.3656 37.1964 53.0555C37.6561 52.7703 37.8198 52.5801 37.8324 52.2679C37.8996 52.1129 37.8828 51.9743 37.7946 51.8544C37.7317 51.5692 37.5805 51.5051 36.9277 51.4658C36.6464 51.4162 36.3 51.3872 35.897 51.3831C35.7102 51.381 35.5233 51.3769 35.3407 51.3707C35.0027 51.3397 34.6986 51.3045 34.5073 51.2735L33.8906 51.1702C33.8746 51.1619 33.8639 51.1578 33.8513 51.1495C33.8513 51.133 33.8606 51.1164 33.8711 51.0978L34.3893 50.8332C34.7282 50.6595 35.6031 50.4652 36.3315 50.4073L37.6561 50.304V49.4378V49.4192C37.6729 49.3179 37.675 49.2124 37.6561 49.1029C37.6456 48.0465 37.4924 47.7199 36.4029 47.6868C36.2895 47.6806 36.1616 47.6764 36.002 47.6806ZM77.2448 51.0668C77.2931 51.0482 77.8682 51.4947 78.964 52.4105C79.5644 52.9108 80.0598 53.3987 80.0598 53.4959C80.0598 53.7543 79.6567 53.7212 79.3712 53.5414C79.2957 53.4752 79.2201 53.3987 79.1403 53.3077C79.1382 53.3057 79.1319 53.2974 79.1277 53.2953C79.1214 53.2788 79.113 53.2602 79.1088 53.2437C79.0333 53.0101 78.4854 52.3465 77.8892 51.7635C77.4274 51.3128 77.2133 51.0792 77.2448 51.0668ZM70.7646 52.5966H70.8171C70.8611 52.5966 70.9115 52.6297 70.9619 52.6876C71.1634 53.0307 71.4321 53.8742 71.5707 54.5543C71.5749 54.5874 71.5875 54.6205 71.5917 54.6515C71.5938 54.6639 71.5959 54.6763 71.598 54.6908C71.6315 54.974 71.6336 55.2262 71.598 55.4081C71.5287 55.7554 71.4405 55.8712 71.3419 55.7699C71.2474 55.5983 71.1445 55.2944 71.0585 54.8582C70.8108 53.5765 70.71 52.8095 70.7646 52.5966ZM20.6717 59.8011C20.7487 59.8011 20.8304 59.8135 20.9078 59.8259C20.9603 59.8404 21.0176 59.8466 21.0783 59.859C21.0957 59.8631 21.115 59.8714 21.1308 59.8776C21.1427 59.8879 21.1507 59.8941 21.157 59.9045C21.2105 59.9892 21.0684 60.0533 20.8094 60.0533C20.6104 60.0533 20.4112 60.0078 20.3173 59.95C20.3115 59.9314 20.311 59.9107 20.3241 59.89C20.3644 59.8259 20.5067 59.799 20.6717 59.8011ZM69.7927 62.5589C69.3686 62.5734 69.3497 62.7367 69.0202 64.3678C68.9278 64.6365 68.8354 64.866 68.7641 65.0066C68.741 65.0272 68.7179 65.0396 68.699 65.0396C68.573 65.0396 68.5163 65.4138 68.5142 65.9058C68.5122 65.9451 68.5142 65.9865 68.5142 66.0278V66.1064C68.5163 66.2201 68.5247 66.34 68.5331 66.4619C68.573 67.0656 68.6759 67.7106 68.8291 68.0703C69.0034 68.4796 69.4673 69.168 69.8661 69.6001C70.2629 70.0342 70.6911 70.7681 70.8171 71.2291C71.0186 71.9671 71.1193 72.0684 71.663 72.0684C72.15 72.0684 72.3117 71.9547 72.4166 71.5392C72.6874 70.4808 72.3558 68.9654 71.4783 67.2227C71.2264 66.7224 71.0501 66.3524 70.922 66.0278C70.7961 65.6371 70.7079 65.2464 70.647 64.7998C70.6323 64.651 70.6239 64.4897 70.6134 64.3161C70.6113 64.2231 70.6134 64.13 70.6134 64.0246V62.5589H70.0026C69.9249 62.5589 69.8535 62.5568 69.7927 62.5589ZM21.5974 63.3858C21.1652 63.3858 21.1243 63.5057 21.0071 65.0913C20.9377 66.0299 20.7384 67.262 20.5608 67.8305C20.4691 68.124 20.3841 68.552 20.3249 68.9923C20.2313 69.5112 20.2013 69.9825 20.2395 70.4477C20.2397 70.4518 20.2395 70.4559 20.2395 70.4601C20.239 70.4704 20.233 70.4973 20.233 70.5056C20.233 70.5366 20.2353 70.5758 20.246 70.6275C20.285 71.4358 20.4616 71.9382 21.0529 73.1145C21.504 74.0117 21.9388 75.1177 22.0173 75.5766C22.138 76.2795 22.2389 76.4098 22.6668 76.4098C23.1351 76.4098 23.1655 76.3291 23.1653 75.0536C23.1655 75.0495 23.1651 75.0453 23.1653 75.0412C23.1685 74.9999 23.1714 74.9647 23.1718 74.9234V74.911C23.1718 74.8655 23.1724 74.7952 23.1653 74.7166C23.1645 74.7084 23.1594 74.6939 23.1588 74.6856C23.1298 73.8256 22.9566 72.4385 22.7455 71.4482C22.6235 70.8756 22.5467 70.4477 22.4961 70.0652C22.4465 69.474 22.447 68.9324 22.4961 68.1592C22.4976 68.1468 22.5011 68.1282 22.5026 68.1158C22.5032 68.1054 22.5022 68.0972 22.5026 68.0889C22.5198 67.9318 22.5389 67.7685 22.5618 67.5845C22.7677 65.9265 22.752 65.542 22.4306 64.5352C22.1298 63.5946 21.9776 63.3858 21.5974 63.3858ZM56.0703 63.6173C55.8541 63.6215 55.5875 63.6442 55.2894 63.6773C55.281 63.6773 55.2726 63.6814 55.2642 63.6835C54.9766 63.7145 54.6638 63.7558 54.2923 63.8117L52.5604 64.0701V64.4443C52.5541 64.5125 52.5541 64.5869 52.5541 64.6841C52.5541 64.9569 52.4723 65.2236 52.3106 65.4655C52.2602 65.5234 52.2057 65.5751 52.1406 65.6143C51.8404 65.8004 51.7208 66.094 51.7208 66.6604V66.6749V66.6811V66.7121C51.7166 66.803 51.7208 66.8919 51.7334 66.9788C51.7585 67.2847 51.8131 67.5452 51.8782 67.6114C52.3484 68.0827 55.2957 66.9705 56.4901 65.8728C56.9939 65.4097 57.2563 64.6861 57.1388 64.0763C57.0779 63.7558 56.784 63.6049 56.0703 63.6173Z" fill="#F20404"/>
</svg>
